<mxfile host="app.diagrams.net" modified="2022-04-20T17:05:06.554Z" agent="5.0 (Windows)" etag="4beoS1x2n7hLyMouQWag" version="17.4.5" type="github">
  <diagram id="7KcAmeR0VUz9K3BZJDZw" name="Page-1">
    <mxGraphModel dx="1422" dy="780" grid="1" gridSize="10" guides="1" tooltips="1" connect="1" arrows="1" fold="1" page="1" pageScale="1" pageWidth="1100" pageHeight="850" math="0" shadow="0">
      <root>
        <mxCell id="0" />
        <mxCell id="1" parent="0" />
        <mxCell id="Ep5J_HdR2HrbwdO68PAK-62" value="" style="ellipse;whiteSpace=wrap;html=1;aspect=fixed;fontFamily=Comic Sans MS;fontSize=17;strokeColor=#000000;fillColor=none;" vertex="1" parent="1">
          <mxGeometry x="15" y="223" width="260" height="260" as="geometry" />
        </mxCell>
        <mxCell id="Ep5J_HdR2HrbwdO68PAK-22" value="" style="ellipse;whiteSpace=wrap;html=1;fontSize=18;fillColor=none;" vertex="1" parent="1">
          <mxGeometry x="485" y="323" width="600" height="410" as="geometry" />
        </mxCell>
        <mxCell id="Ep5J_HdR2HrbwdO68PAK-5" value="" style="ellipse;whiteSpace=wrap;html=1;fontSize=18;fillColor=none;" vertex="1" parent="1">
          <mxGeometry x="550" y="378" width="220" height="180" as="geometry" />
        </mxCell>
        <mxCell id="Ep5J_HdR2HrbwdO68PAK-1" value="" style="sketch=0;pointerEvents=1;shadow=0;dashed=0;html=1;strokeColor=none;fillColor=#434445;aspect=fixed;labelPosition=center;verticalLabelPosition=bottom;verticalAlign=top;align=center;outlineConnect=0;shape=mxgraph.vvd.cpu;" vertex="1" parent="1">
          <mxGeometry x="620" y="428" width="80" height="80" as="geometry" />
        </mxCell>
        <mxCell id="Ep5J_HdR2HrbwdO68PAK-2" value="&lt;div&gt;&lt;font style=&quot;font-size: 18px&quot;&gt;&lt;b&gt;x86&lt;/b&gt;&lt;/font&gt;&lt;/div&gt;" style="text;html=1;strokeColor=none;fillColor=none;align=center;verticalAlign=middle;whiteSpace=wrap;rounded=0;" vertex="1" parent="1">
          <mxGeometry x="630" y="453" width="60" height="30" as="geometry" />
        </mxCell>
        <mxCell id="Ep5J_HdR2HrbwdO68PAK-6" value="" style="sketch=0;aspect=fixed;html=1;points=[];align=center;image;fontSize=12;image=img/lib/mscae/Kubernetes.svg;fillColor=none;" vertex="1" parent="1">
          <mxGeometry x="740" y="283" width="76.04" height="73" as="geometry" />
        </mxCell>
        <mxCell id="Ep5J_HdR2HrbwdO68PAK-9" value="" style="sketch=0;html=1;dashed=0;whitespace=wrap;fillColor=#2875E2;strokeColor=#ffffff;points=[[0.005,0.63,0],[0.1,0.2,0],[0.9,0.2,0],[0.5,0,0],[0.995,0.63,0],[0.72,0.99,0],[0.5,1,0],[0.28,0.99,0]];shape=mxgraph.kubernetes.icon;prIcon=pod;fontSize=18;" vertex="1" parent="1">
          <mxGeometry x="690" y="405" width="50" height="48" as="geometry" />
        </mxCell>
        <mxCell id="Ep5J_HdR2HrbwdO68PAK-12" value="" style="sketch=0;html=1;dashed=0;whitespace=wrap;fillColor=#2875E2;strokeColor=#ffffff;points=[[0.005,0.63,0],[0.1,0.2,0],[0.9,0.2,0],[0.5,0,0],[0.995,0.63,0],[0.72,0.99,0],[0.5,1,0],[0.28,0.99,0]];shape=mxgraph.kubernetes.icon;prIcon=pod;fontSize=18;" vertex="1" parent="1">
          <mxGeometry x="705" y="463" width="50" height="48" as="geometry" />
        </mxCell>
        <mxCell id="Ep5J_HdR2HrbwdO68PAK-13" value="" style="sketch=0;html=1;dashed=0;whitespace=wrap;fillColor=#2875E2;strokeColor=#ffffff;points=[[0.005,0.63,0],[0.1,0.2,0],[0.9,0.2,0],[0.5,0,0],[0.995,0.63,0],[0.72,0.99,0],[0.5,1,0],[0.28,0.99,0]];shape=mxgraph.kubernetes.icon;prIcon=pod;fontSize=18;" vertex="1" parent="1">
          <mxGeometry x="565" y="435" width="50" height="48" as="geometry" />
        </mxCell>
        <mxCell id="Ep5J_HdR2HrbwdO68PAK-15" value="" style="ellipse;whiteSpace=wrap;html=1;fontSize=18;fillColor=none;" vertex="1" parent="1">
          <mxGeometry x="795" y="376.5" width="220" height="180" as="geometry" />
        </mxCell>
        <mxCell id="Ep5J_HdR2HrbwdO68PAK-16" value="" style="sketch=0;pointerEvents=1;shadow=0;dashed=0;html=1;strokeColor=none;fillColor=#434445;aspect=fixed;labelPosition=center;verticalLabelPosition=bottom;verticalAlign=top;align=center;outlineConnect=0;shape=mxgraph.vvd.cpu;" vertex="1" parent="1">
          <mxGeometry x="865" y="427.25" width="81.5" height="81.5" as="geometry" />
        </mxCell>
        <mxCell id="Ep5J_HdR2HrbwdO68PAK-17" value="&lt;br&gt;&lt;div&gt;&lt;font style=&quot;font-size: 18px&quot;&gt;&lt;b&gt;ARM&lt;/b&gt;&lt;/font&gt;&lt;/div&gt;" style="text;html=1;strokeColor=none;fillColor=none;align=center;verticalAlign=middle;whiteSpace=wrap;rounded=0;" vertex="1" parent="1">
          <mxGeometry x="875" y="442.5" width="60" height="30" as="geometry" />
        </mxCell>
        <mxCell id="Ep5J_HdR2HrbwdO68PAK-19" value="" style="sketch=0;html=1;dashed=0;whitespace=wrap;fillColor=#2875E2;strokeColor=#ffffff;points=[[0.005,0.63,0],[0.1,0.2,0],[0.9,0.2,0],[0.5,0,0],[0.995,0.63,0],[0.72,0.99,0],[0.5,1,0],[0.28,0.99,0]];shape=mxgraph.kubernetes.icon;prIcon=pod;fontSize=18;" vertex="1" parent="1">
          <mxGeometry x="935" y="403.5" width="50" height="48" as="geometry" />
        </mxCell>
        <mxCell id="Ep5J_HdR2HrbwdO68PAK-20" value="" style="sketch=0;html=1;dashed=0;whitespace=wrap;fillColor=#2875E2;strokeColor=#ffffff;points=[[0.005,0.63,0],[0.1,0.2,0],[0.9,0.2,0],[0.5,0,0],[0.995,0.63,0],[0.72,0.99,0],[0.5,1,0],[0.28,0.99,0]];shape=mxgraph.kubernetes.icon;prIcon=pod;fontSize=18;" vertex="1" parent="1">
          <mxGeometry x="950" y="461.5" width="50" height="48" as="geometry" />
        </mxCell>
        <mxCell id="Ep5J_HdR2HrbwdO68PAK-21" value="" style="sketch=0;html=1;dashed=0;whitespace=wrap;fillColor=#2875E2;strokeColor=#ffffff;points=[[0.005,0.63,0],[0.1,0.2,0],[0.9,0.2,0],[0.5,0,0],[0.995,0.63,0],[0.72,0.99,0],[0.5,1,0],[0.28,0.99,0]];shape=mxgraph.kubernetes.icon;prIcon=pod;fontSize=18;" vertex="1" parent="1">
          <mxGeometry x="810" y="433.5" width="50" height="48" as="geometry" />
        </mxCell>
        <mxCell id="Ep5J_HdR2HrbwdO68PAK-23" value="" style="sketch=0;html=1;dashed=0;whitespace=wrap;fillColor=#2875E2;strokeColor=#ffffff;points=[[0.005,0.63,0],[0.1,0.2,0],[0.9,0.2,0],[0.5,0,0],[0.995,0.63,0],[0.72,0.99,0],[0.5,1,0],[0.28,0.99,0]];shape=mxgraph.kubernetes.icon;prIcon=node;fontSize=18;" vertex="1" parent="1">
          <mxGeometry x="605" y="365.5" width="62.5" height="60" as="geometry" />
        </mxCell>
        <mxCell id="Ep5J_HdR2HrbwdO68PAK-24" value="&lt;font style=&quot;font-size: 12px&quot; face=&quot;Comic Sans MS&quot;&gt;Cluster&lt;/font&gt;" style="text;html=1;strokeColor=none;fillColor=none;align=center;verticalAlign=middle;whiteSpace=wrap;rounded=0;fontSize=9;" vertex="1" parent="1">
          <mxGeometry x="805" y="323" width="60" height="30" as="geometry" />
        </mxCell>
        <mxCell id="Ep5J_HdR2HrbwdO68PAK-25" value="&lt;font style=&quot;font-size: 12px&quot; face=&quot;Comic Sans MS&quot;&gt;Node&lt;/font&gt;" style="text;html=1;strokeColor=none;fillColor=none;align=center;verticalAlign=middle;whiteSpace=wrap;rounded=0;fontSize=9;" vertex="1" parent="1">
          <mxGeometry x="655" y="373.5" width="60" height="30" as="geometry" />
        </mxCell>
        <mxCell id="Ep5J_HdR2HrbwdO68PAK-26" value="&lt;font style=&quot;font-size: 12px&quot; face=&quot;Comic Sans MS&quot;&gt;Node&lt;/font&gt;" style="text;html=1;strokeColor=none;fillColor=none;align=center;verticalAlign=middle;whiteSpace=wrap;rounded=0;fontSize=9;" vertex="1" parent="1">
          <mxGeometry x="890" y="373.5" width="60" height="30" as="geometry" />
        </mxCell>
        <mxCell id="Ep5J_HdR2HrbwdO68PAK-27" value="" style="editableCssRules=.*;shape=image;verticalLabelPosition=bottom;labelBackgroundColor=#ffffff;verticalAlign=top;aspect=fixed;imageAspect=0;image=data:image/svg+xml,PHN2ZyB4bWxucz0iaHR0cDovL3d3dy53My5vcmcvMjAwMC9zdmciIHhtbG5zOnhsaW5rPSJodHRwOi8vd3d3LnczLm9yZy8xOTk5L3hsaW5rIiB4bWxuczp2PSJodHRwczovL3ZlY3RhLmlvL25hbm8iIHdpZHRoPSI3MTguNjM1MDcwODAwNzgxMiIgaGVpZ2h0PSIxMDYuNjUwMDAxNTI1ODc4OSIgdmlld0JveD0iMTAgMTAgNzE4LjYzNTA3MDgwMDc4MTIgMTA2LjY1MDAwMTUyNTg3ODkiPiYjeGE7CTxzdHlsZSB0eXBlPSJ0ZXh0L2NzcyI+JiN4YTsJLnN0MHtmaWxsOiMzMjZkZTU7fSYjeGE7CTwvc3R5bGU+JiN4YTsJPGcgY2xhc3M9InN0MCIgZmlsbD0iIzMyNmRlNSI+JiN4YTsJCTxwYXRoIGQ9Ik0zMC4xMTUgNjkuNGw2LjA3NS02Ljc1IDYuMjEtNi44ODUgNS41MzUtNi42MTUgNC41OS01LjRINzYuNDJMNjIuMzggNTkuNTQ1Yy00LjUgNC45NS05LjQ1IDEwLjA4LTE0Ljg1IDE1LjM5IDIuNyAyLjQzIDUuNDkgNS4zNTUgOC4zNyA4Ljc3NWExOTEuODYgMTkxLjg2IDAgMCAxIDguMzcgMTAuMzk1YzIuNyAzLjYgNS4xNzUgNy4yIDcuNDI1IDEwLjhzNC4xNCA2Ljg4NSA1LjY3IDkuODU1SDU0LjI4Yy0xLjQ0LTIuMzQtMy4xMDUtNC45MDUtNC45OTUtNy42OTUtMS44LTIuODgtMy43MzUtNS43MTUtNS44MDUtOC41MDVhOTguMDcgOTguMDcgMCAwIDAtNi42MTUtOC4yMzVjLTIuMjUtMi42MS00LjUtNC44MTUtNi43NS02LjYxNXYzMS4wNUgxMFYxMy4yNEwzMC4xMTUgMTB2NTkuNG0xMTcuMjI5IDQyLjkzYy0zLjQyLjk5LTcuODMgMS44OS0xMy4yMyAyLjctNS40LjktMTEuMDcgMS4zNS0xNy4wMSAxLjM1LTYuMDMgMC0xMS4wNy0uODEtMTUuMTItMi40My0zLjk2LTEuNjItNy4xMS0zLjg3LTkuNDUtNi43NS0yLjM0LTIuOTctNC4wMDUtNi40OC00Ljk5NS0xMC41M3MtMS40ODUtOC41MDUtMS40ODUtMTMuMzY1VjQzLjc1aDIwLjExNXYzNy4xMjVjMCA2LjQ4Ljg1NSAxMS4xNiAyLjU2NSAxNC4wNHM0LjkwNSA0LjMyIDkuNTg1IDQuMzJhODIuOTUgODIuOTUgMCAwIDAgNC41OS0uMTM1bDQuMzItLjU0VjQzLjc1aDIwLjExNXY2OC41OG02NC41MDktMzMuNjE1YzAtMTIuOTYtNC43Ny0xOS40NC0xNC4zMS0xOS40NC0yLjA3IDAtNC4xNC4yNy02LjIxLjgxLTEuOTguNTQtMy42IDEuMjE1LTQuODYgMi4wMjV2MzYuNTg1Yy45OS4xOCAyLjI1LjM2IDMuNzguNTRhODUuNDQgODUuNDQgMCAwIDAgNC45OTUuMTM1YzUuNDkgMCA5LjYzLTEuODkgMTIuNDItNS42N3M0LjE4NS04Ljc3NSA0LjE4NS0xNC45ODVtMjAuNTIuNTRjMCA1LjY3LS44NTUgMTAuOC0yLjU2NSAxNS4zOS0xLjYyIDQuNTktNC4wMDUgOC41MDUtNy4xNTUgMTEuNzQ1cy03LjAyIDUuNzYtMTEuNjEgNy41NmMtNC41OSAxLjcxLTkuODEgMi41NjUtMTUuNjYgMi41NjUtMi40MyAwLTQuOTk1LS4xMzUtNy42OTUtLjQwNWExMTUuMzkgMTE1LjM5IDAgMCAxLTcuODMtLjgxYy0yLjUyLS4zNi00Ljk1LS43NjUtNy4yOS0xLjIxNS0yLjM0LS41NC00LjQxLTEuMDgtNi4yMS0xLjYyVjEzLjI0TDE4Ni40NzMgMTB2MzUuMzdjMi4yNS0uOTkgNC41OS0xLjc1NSA3LjAyLTIuMjk1czUuMDQtLjgxIDcuODMtLjgxYzUuMDQgMCA5LjQ5NS45IDEzLjM2NSAyLjcgMy44NyAxLjcxIDcuMTEgNC4xODUgOS43MiA3LjQyNXM0LjU5IDcuMTU1IDUuOTQgMTEuNzQ1YzEuMzUgNC41IDIuMDI1IDkuNTQgMi4wMjUgMTUuMTIiLz4mI3hhOwkJPHVzZSB4bGluazpocmVmPSIjQiIvPiYjeGE7CQk8cGF0aCBkPSJNMzY5LjQ2NSA2MS41N2wtNi4zNDUtMS4zNWMtMi40My0uNTQtNS4wNC0uODEtNy44My0uODEtMS4yNiAwLTIuNzkuMTM1LTQuNTkuNDA1LTEuNzEuMTgtMy4wMTUuNDA1LTMuOTE1LjY3NXY1NC4yN0gzMjYuNjdWNDcuNTNjMy42LTEuMjYgNy44My0yLjQzIDEyLjY5LTMuNTEgNC45NS0xLjE3IDEwLjQ0LTEuNzU1IDE2LjQ3LTEuNzU1IDEuMDggMCAyLjM4NS4wOSAzLjkxNS4yN2EzOS45IDM5LjkgMCAwIDEgNC41OS41NCA0MC45MiA0MC45MiAwIDAgMSA0LjU5LjgxYzEuNTMuMjcgMi44MzUuNjMgMy45MTUgMS4wOGwtMy4zNzUgMTYuNjA1bTE0LjE1OC0xNS4zOWMzLjQyLS45OSA3LjgzLTEuODkgMTMuMjMtMi43IDUuNC0uOSAxMS4wNy0xLjM1IDE3LjAxLTEuMzUgNi4wMyAwIDExLjAyNS44MSAxNC45ODUgMi40MyA0LjA1IDEuNTMgNy4yNDUgMy43MzUgOS41ODUgNi42MTVzNC4wMDUgNi4zIDQuOTk1IDEwLjI2IDEuNDg1IDguMzcgMS40ODUgMTMuMjN2NDAuMDk1aC0yMC4xMTVWNzcuMDk1YzAtNi40OC0uODU1LTExLjA3LTIuNTY1LTEzLjc3cy00LjkwNS00LjA1LTkuNTg1LTQuMDVhNDEuNjYgNDEuNjYgMCAwIDAtNC41OS4yNyA1MC43NyA1MC43NyAwIDAgMC00LjMyLjQwNXY1NC44MWgtMjAuMTE1VjQ2LjE4bTc2LjI1NCAzMy42MTVjMC02LjMuOTQ1LTExLjc5IDIuODM1LTE2LjQ3IDEuOTgtNC43NyA0LjU0NS04LjczIDcuNjk1LTExLjg4czYuNzUtNS41MzUgMTAuOC03LjE1NWM0LjE0LTEuNjIgOC4zNy0yLjQzIDEyLjY5LTIuNDMgMTAuMDggMCAxOC4wNDUgMy4xMDUgMjMuODk1IDkuMzE1IDUuODUgNi4xMiA4Ljc3NSAxNS4xNjUgOC43NzUgMjcuMTM1IDAgMS4xNy0uMDQ1IDIuNDc1LS4xMzUgMy45MTVsLS4yNyAzLjY0NWgtNDUuNjNjLjQ1IDQuMTQgMi4zODUgNy40MjUgNS44MDUgOS44NTVzOC4wMSAzLjY0NSAxMy43NyAzLjY0NWMzLjY5IDAgNy4yOS0uMzE1IDEwLjgtLjk0NSAzLjYtLjcyIDYuNTI1LTEuNTc1IDguNzc1LTIuNTY1bDIuNyAxNi4zMzVjLTEuMDguNTQtMi41MiAxLjA4LTQuMzIgMS42MnMtMy44MjUuOTktNi4wNzUgMS4zNWMtMi4xNi40NS00LjUuODEtNy4wMiAxLjA4cy01LjA0LjQwNS03LjU2LjQwNWMtNi4zOSAwLTExLjk3LS45NDUtMTYuNzQtMi44MzUtNC42OC0xLjg5LTguNTk1LTQuNDU1LTExLjc0NS03LjY5NS0zLjA2LTMuMzMtNS4zNTUtNy4yNDUtNi44ODUtMTEuNzQ1LTEuNDQtNC41LTIuMTYtOS4zNi0yLjE2LTE0LjU4bTQ3LjI1LTcuNjk1YTE4Ljg2IDE4Ljg2IDAgMCAwLS45NDUtNC45OTVjLS40NS0xLjYyLTEuMjE1LTMuMDYtMi4yOTUtNC4zMi0uOTktMS4yNi0yLjI5NS0yLjI5NS0zLjkxNS0zLjEwNS0xLjUzLS44MS0zLjQ2NS0xLjIxNS01LjgwNS0xLjIxNS0yLjI1IDAtNC4xODUuNDA1LTUuODA1IDEuMjE1LTEuNjIuNzItMi45NyAxLjcxLTQuMDUgMi45N3MtMS45MzUgMi43NDUtMi41NjUgNC40NTVhMzEuMTEgMzEuMTEgMCAwIDAtMS4yMTUgNC45OTVoMjYuNTk1bTM0LjI4OC00Ni4wMzVsMjAuMTE1LTMuMjRWNDMuNzVoMjQuMTY1djE2Ljc0SDU2MS41M3YyNC45NzVjMCA0LjIzLjcyIDcuNjA1IDIuMTYgMTAuMTI1IDEuNTMgMi41MiA0LjU0NSAzLjc4IDkuMDQ1IDMuNzggMi4xNiAwIDQuMzY1LS4xOCA2LjYxNS0uNTQgMi4zNC0uNDUgNC40NTUtMS4wMzUgNi4zNDUtMS43NTVsMi44MzUgMTUuNjZjLTIuNDMuOTktNS4xMyAxLjg0NS04LjEgMi41NjVzLTYuNjE1IDEuMDgtMTAuOTM1IDEuMDhjLTUuNDkgMC0xMC4wMzUtLjcyLTEzLjYzNS0yLjE2LTMuNi0xLjUzLTYuNDgtMy42LTguNjQtNi4yMS0yLjE2LTIuNy0zLjY5LTUuOTQtNC41OS05LjcyLS44MS0zLjc4LTEuMjE1LTcuOTY1LTEuMjE1LTEyLjU1NXYtNTkuNjciLz4mI3hhOwkJPHVzZSB4bGluazpocmVmPSIjQiIgeD0iMzUxLjQ3NSIvPiYjeGE7CQk8cGF0aCBkPSJNNjk4LjUzIDEwMC4zMTVjMy42OSAwIDYuMy0uMzYgNy44My0xLjA4czIuMjk1LTIuMTE1IDIuMjk1LTQuMTg1YzAtMS42Mi0uOTktMy4wMTUtMi45Ny00LjE4NS0xLjk4LTEuMjYtNC45OTUtMi42NTUtOS4wNDUtNC4xODVMNjg4IDgzLjAzNWMtMi41Mi0xLjI2LTQuNjgtMi43NDUtNi40OC00LjQ1NS0xLjgtMS44LTMuMTk1LTMuOTE1LTQuMTg1LTYuMzQ1cy0xLjQ4NS01LjM1NS0xLjQ4NS04Ljc3NWMwLTYuNjYgMi40NzUtMTEuOTI1IDcuNDI1LTE1Ljc5NXMxMS43NDUtNS44MDUgMjAuMzg1LTUuODA1YzQuMzIgMCA4LjQ2LjQwNSAxMi40MiAxLjIxNSAzLjk2LjcyIDcuMTEgMS41MyA5LjQ1IDIuNDNsLTMuNTEgMTUuNjZjLTIuMzQtLjgxLTQuOTA1LTEuNTMtNy42OTUtMi4xNi0yLjctLjYzLTUuNzYtLjk0NS05LjE4LS45NDUtNi4zIDAtOS40NSAxLjc1NS05LjQ1IDUuMjY1IDAgLjgxLjEzNSAxLjUzLjQwNSAyLjE2cy44MSAxLjI2IDEuNjIgMS44OWMuODEuNTQgMS44OSAxLjE3IDMuMjQgMS44OSAxLjQ0LjYzIDMuMjQgMS4zNSA1LjQgMi4xNiA0LjQxIDEuNjIgOC4wNTUgMy4yNCAxMC45MzUgNC44NiAyLjg4IDEuNTMgNS4xMyAzLjI0IDYuNzUgNS4xMyAxLjcxIDEuOCAyLjg4IDMuODI1IDMuNTEgNi4wNzUuNzIgMi4yNSAxLjA4IDQuODYgMS4wOCA3LjgzIDAgNy4wMi0yLjY1NSAxMi4zMy03Ljk2NSAxNS45My01LjIyIDMuNi0xMi42NDUgNS40LTIyLjI3NSA1LjQtNi4zIDAtMTEuNTY1LS41NC0xNS43OTUtMS42Mi00LjE0LTEuMDgtNy4wMi0xLjk4LTguNjQtMi43bDMuMzc1LTE2LjMzNWE3MS4yIDcxLjIgMCAwIDAgMTAuNTMgMy4yNCA1NC4yOCA1NC4yOCAwIDAgMCAxMC42NjUgMS4wOCIvPiYjeGE7CTwvZz4mI3hhOwk8ZGVmcz4mI3hhOwkJPHBhdGggaWQ9IkIiIGQ9Ik0yNDQuNDU3IDc5Ljc5NWMwLTYuMy45NDUtMTEuNzkgMi44MzUtMTYuNDcgMS45OC00Ljc3IDQuNTQ1LTguNzMgNy42OTUtMTEuODhzNi43NS01LjUzNSAxMC44LTcuMTU1YzQuMTQtMS42MiA4LjM3LTIuNDMgMTIuNjktMi40MyAxMC4wOCAwIDE4LjA0NSAzLjEwNSAyMy44OTUgOS4zMTUgNS44NSA2LjEyIDguNzc1IDE1LjE2NSA4Ljc3NSAyNy4xMzUgMCAxLjE3LS4wNDUgMi40NzUtLjEzNSAzLjkxNWwtLjI3IDMuNjQ1aC00NS42M2MuNDUgNC4xNCAyLjM4NSA3LjQyNSA1LjgwNSA5Ljg1NXM4LjAxIDMuNjQ1IDEzLjc3IDMuNjQ1YzMuNjkgMCA3LjI5LS4zMTUgMTAuOC0uOTQ1IDMuNi0uNzIgNi41MjUtMS41NzUgOC43NzUtMi41NjVsMi43IDE2LjMzNWMtMS4wOC41NC0yLjUyIDEuMDgtNC4zMiAxLjYycy0zLjgyNS45OS02LjA3NSAxLjM1Yy0yLjE2LjQ1LTQuNS44MS03LjAyIDEuMDhzLTUuMDQuNDA1LTcuNTYuNDA1Yy02LjM5IDAtMTEuOTctLjk0NS0xNi43NC0yLjgzNS00LjY4LTEuODktOC41OTUtNC40NTUtMTEuNzQ1LTcuNjk1LTMuMDYtMy4zMy01LjM1NS03LjI0NS02Ljg4NS0xMS43NDUtMS40NC00LjUtMi4xNi05LjM2LTIuMTYtMTQuNThtNDcuMjUtNy42OTVhMTguODYgMTguODYgMCAwIDAtLjk0NS00Ljk5NWMtLjQ1LTEuNjItMS4yMTUtMy4wNi0yLjI5NS00LjMyLS45OS0xLjI2LTIuMjk1LTIuMjk1LTMuOTE1LTMuMTA1LTEuNTMtLjgxLTMuNDY1LTEuMjE1LTUuODA1LTEuMjE1LTIuMjUgMC00LjE4NS40MDUtNS44MDUgMS4yMTUtMS42Mi43Mi0yLjk3IDEuNzEtNC4wNSAyLjk3cy0xLjkzNSAyLjc0NS0yLjU2NSA0LjQ1NWMtLjU0IDEuNjItLjk0NSAzLjI4NS0xLjIxNSA0Ljk5NWgyNi41OTUiLz4mI3hhOwk8L2RlZnM+JiN4YTs8L3N2Zz4=;fontColor=default;fontFamily=Comic Sans MS;fontSize=12;fillColor=none;" vertex="1" parent="1">
          <mxGeometry x="592.5" y="293" width="135" height="20" as="geometry" />
        </mxCell>
        <mxCell id="Ep5J_HdR2HrbwdO68PAK-28" value="" style="ellipse;whiteSpace=wrap;html=1;fontSize=18;fillColor=none;" vertex="1" parent="1">
          <mxGeometry x="670" y="546" width="220" height="180" as="geometry" />
        </mxCell>
        <mxCell id="Ep5J_HdR2HrbwdO68PAK-29" value="" style="sketch=0;pointerEvents=1;shadow=0;dashed=0;html=1;strokeColor=none;fillColor=#434445;aspect=fixed;labelPosition=center;verticalLabelPosition=bottom;verticalAlign=top;align=center;outlineConnect=0;shape=mxgraph.vvd.cpu;" vertex="1" parent="1">
          <mxGeometry x="735" y="595" width="82" height="82" as="geometry" />
        </mxCell>
        <mxCell id="Ep5J_HdR2HrbwdO68PAK-30" value="&lt;br&gt;&lt;div&gt;&lt;font style=&quot;font-size: 18px&quot;&gt;&lt;b&gt;Arch&lt;br&gt;XY&lt;br&gt;&lt;/b&gt;&lt;/font&gt;&lt;/div&gt;" style="text;html=1;strokeColor=none;fillColor=none;align=center;verticalAlign=middle;whiteSpace=wrap;rounded=0;" vertex="1" parent="1">
          <mxGeometry x="746" y="612" width="60" height="30" as="geometry" />
        </mxCell>
        <mxCell id="Ep5J_HdR2HrbwdO68PAK-31" value="" style="sketch=0;html=1;dashed=0;whitespace=wrap;fillColor=#2875E2;strokeColor=#ffffff;points=[[0.005,0.63,0],[0.1,0.2,0],[0.9,0.2,0],[0.5,0,0],[0.995,0.63,0],[0.72,0.99,0],[0.5,1,0],[0.28,0.99,0]];shape=mxgraph.kubernetes.icon;prIcon=pod;fontSize=18;" vertex="1" parent="1">
          <mxGeometry x="810" y="573" width="50" height="48" as="geometry" />
        </mxCell>
        <mxCell id="Ep5J_HdR2HrbwdO68PAK-32" value="" style="sketch=0;html=1;dashed=0;whitespace=wrap;fillColor=#2875E2;strokeColor=#ffffff;points=[[0.005,0.63,0],[0.1,0.2,0],[0.9,0.2,0],[0.5,0,0],[0.995,0.63,0],[0.72,0.99,0],[0.5,1,0],[0.28,0.99,0]];shape=mxgraph.kubernetes.icon;prIcon=pod;fontSize=18;" vertex="1" parent="1">
          <mxGeometry x="825" y="631" width="50" height="48" as="geometry" />
        </mxCell>
        <mxCell id="Ep5J_HdR2HrbwdO68PAK-33" value="" style="sketch=0;html=1;dashed=0;whitespace=wrap;fillColor=#2875E2;strokeColor=#ffffff;points=[[0.005,0.63,0],[0.1,0.2,0],[0.9,0.2,0],[0.5,0,0],[0.995,0.63,0],[0.72,0.99,0],[0.5,1,0],[0.28,0.99,0]];shape=mxgraph.kubernetes.icon;prIcon=pod;fontSize=18;" vertex="1" parent="1">
          <mxGeometry x="685" y="603" width="50" height="48" as="geometry" />
        </mxCell>
        <mxCell id="Ep5J_HdR2HrbwdO68PAK-34" value="&lt;font style=&quot;font-size: 12px&quot; face=&quot;Comic Sans MS&quot;&gt;Node&lt;/font&gt;" style="text;html=1;strokeColor=none;fillColor=none;align=center;verticalAlign=middle;whiteSpace=wrap;rounded=0;fontSize=9;" vertex="1" parent="1">
          <mxGeometry x="765" y="543" width="60" height="30" as="geometry" />
        </mxCell>
        <mxCell id="Ep5J_HdR2HrbwdO68PAK-35" value="" style="sketch=0;html=1;dashed=0;whitespace=wrap;fillColor=#2875E2;strokeColor=#ffffff;points=[[0.005,0.63,0],[0.1,0.2,0],[0.9,0.2,0],[0.5,0,0],[0.995,0.63,0],[0.72,0.99,0],[0.5,1,0],[0.28,0.99,0]];shape=mxgraph.kubernetes.icon;prIcon=node;fontSize=18;" vertex="1" parent="1">
          <mxGeometry x="835" y="365.5" width="62.5" height="60" as="geometry" />
        </mxCell>
        <mxCell id="Ep5J_HdR2HrbwdO68PAK-7" value="" style="sketch=0;html=1;dashed=0;whitespace=wrap;fillColor=#2875E2;strokeColor=#ffffff;points=[[0.005,0.63,0],[0.1,0.2,0],[0.9,0.2,0],[0.5,0,0],[0.995,0.63,0],[0.72,0.99,0],[0.5,1,0],[0.28,0.99,0]];shape=mxgraph.kubernetes.icon;prIcon=node;fontSize=18;" vertex="1" parent="1">
          <mxGeometry x="715" y="535" width="62.5" height="60" as="geometry" />
        </mxCell>
        <mxCell id="Ep5J_HdR2HrbwdO68PAK-42" value="&lt;div style=&quot;font-size: 21px&quot;&gt;&lt;font style=&quot;font-size: 21px&quot;&gt;different processor architectures&lt;/font&gt;&lt;/div&gt;&lt;div style=&quot;font-size: 21px&quot;&gt;&lt;font style=&quot;font-size: 21px&quot;&gt;.. working together homogeneously&lt;br&gt;&lt;/font&gt;&lt;font style=&quot;font-size: 21px&quot;&gt;&lt;/font&gt;&lt;/div&gt;" style="text;html=1;strokeColor=none;fillColor=none;align=center;verticalAlign=middle;whiteSpace=wrap;rounded=0;fontFamily=Comic Sans MS;fontSize=12;" vertex="1" parent="1">
          <mxGeometry x="9" y="30" width="350" height="30" as="geometry" />
        </mxCell>
        <mxCell id="Ep5J_HdR2HrbwdO68PAK-45" value="&lt;ul&gt;&lt;li&gt;Uniform Operating Interface&lt;/li&gt;&lt;li&gt;Containerized Applications&lt;/li&gt;&lt;li&gt;Application Monitoring&lt;/li&gt;&lt;li&gt;Automated Deployment to Nodes with different Architectures according to specified rules&lt;/li&gt;&lt;li&gt;Scalability&lt;br&gt;&lt;/li&gt;&lt;/ul&gt;" style="text;html=1;strokeColor=none;fillColor=none;align=center;verticalAlign=middle;whiteSpace=wrap;rounded=0;fontFamily=Comic Sans MS;fontSize=14;" vertex="1" parent="1">
          <mxGeometry x="465" y="10" width="290" height="140" as="geometry" />
        </mxCell>
        <mxCell id="Ep5J_HdR2HrbwdO68PAK-47" value="" style="shape=flexArrow;endArrow=classic;html=1;rounded=0;fontFamily=Comic Sans MS;fontSize=14;fillColor=#000000;" edge="1" parent="1">
          <mxGeometry width="50" height="50" relative="1" as="geometry">
            <mxPoint x="390" y="70" as="sourcePoint" />
            <mxPoint x="500" y="70" as="targetPoint" />
          </mxGeometry>
        </mxCell>
        <mxCell id="Ep5J_HdR2HrbwdO68PAK-49" value="Requirements" style="edgeLabel;html=1;align=center;verticalAlign=middle;resizable=0;points=[];fontSize=14;fontFamily=Comic Sans MS;" vertex="1" connectable="0" parent="Ep5J_HdR2HrbwdO68PAK-47">
          <mxGeometry x="0.3455" y="1" relative="1" as="geometry">
            <mxPoint x="-34" y="-19" as="offset" />
          </mxGeometry>
        </mxCell>
        <mxCell id="Ep5J_HdR2HrbwdO68PAK-51" value="" style="shape=flexArrow;endArrow=classic;html=1;rounded=0;fontFamily=Comic Sans MS;fontSize=14;fillColor=#000000;" edge="1" parent="1">
          <mxGeometry width="50" height="50" relative="1" as="geometry">
            <mxPoint x="465" y="213" as="sourcePoint" />
            <mxPoint x="575" y="273" as="targetPoint" />
          </mxGeometry>
        </mxCell>
        <mxCell id="Ep5J_HdR2HrbwdO68PAK-52" value="Possible Outcome" style="edgeLabel;html=1;align=center;verticalAlign=middle;resizable=0;points=[];fontSize=14;fontFamily=Comic Sans MS;rotation=30;" vertex="1" connectable="0" parent="Ep5J_HdR2HrbwdO68PAK-51">
          <mxGeometry x="0.3455" y="1" relative="1" as="geometry">
            <mxPoint x="-27" y="-39" as="offset" />
          </mxGeometry>
        </mxCell>
        <mxCell id="Ep5J_HdR2HrbwdO68PAK-56" value="" style="shape=image;html=1;verticalAlign=top;verticalLabelPosition=bottom;labelBackgroundColor=#ffffff;imageAspect=0;aspect=fixed;image=https://cdn1.iconfinder.com/data/icons/KDE_Crystal_Diamond_2.5_Classical_Mod/128x128/apps/kcmprocessor.png;fontFamily=Comic Sans MS;fontSize=17;strokeColor=#FF0000;fillColor=none;" vertex="1" parent="1">
          <mxGeometry x="95" y="240" width="73" height="73" as="geometry" />
        </mxCell>
        <mxCell id="Ep5J_HdR2HrbwdO68PAK-57" value="" style="shape=image;html=1;verticalAlign=top;verticalLabelPosition=bottom;labelBackgroundColor=#ffffff;imageAspect=0;aspect=fixed;image=https://cdn2.iconfinder.com/data/icons/drf/PNG/intel%202.png;fontFamily=Comic Sans MS;fontSize=17;strokeColor=#FF0000;fillColor=none;" vertex="1" parent="1">
          <mxGeometry x="35" y="269.5" width="60" height="60" as="geometry" />
        </mxCell>
        <mxCell id="Ep5J_HdR2HrbwdO68PAK-58" value="" style="shape=image;verticalLabelPosition=bottom;labelBackgroundColor=default;verticalAlign=top;aspect=fixed;imageAspect=0;image=data:image/png,iVBORw0KGgoAAAANSUhEUgAAAJcAAAByCAYAAABeFkNIAAAfDklEQVR4Xu1dCXhdZZn+kma72ZebPWm2LumasFkVmBZxYVymhcoji0gQnSqobZ9RcCqO7TM8LFVpOoM4jDIER0FBsCBCRR0K2NIC3Uu3LE3bpM2+71vn/c45/73/Pffc/d7kJrk/tEnvcpb/vOf93m/7T9glDAqN0AwEYAbCQuAKwKyGNqnMQAhcISAEbAZC4ArY1IY2HAJXCAMBm4EQuAI2taENh8AVwkDAZiAEroBNbWjDIXCFMBCwGQiBK2BTG9pwCFwhDARsBkLgcjK15/qG6Yf7zyuf+LfL8qgkMSZgF2ImbjgELoOr2js6Tg8dbKBtxy7Q8IT6gYhwonsWZdGPLs+n1OiImYgFv59TCFzSlE4ghV91uoU2vX+WmgdHkRzjN5W/LD9SoyNpy+V5CtDCtbf8flVmyAZD4NIu5L6WXlr3di0d7hiwAMkIXMqb+L8sNZa2f7SQVmYlzhAo+P80Zj24GvpH6F/31dNvalrpko6lnIFLsNnagjTaetVcKk6I9v/VmeZbnLXgGhiboJ8cbqRHDzUQ/24IJAOzKJjLairDKBr2cePSbPphWS7FsjgLDXV6Zls9F1dG/hYsdd+7Z6hhALpKDCMguQkuAbS82CjaeuVcuqU4TXDgrIbZrALX4fZ+Wrerhva19moiXVLkfgCXUP4r0uNo+4oCWmGOD4Frps9ACzy/B6CrnjrRTEpkQWAqLDDg0jQ/3V6SRg8jdMGMNhvHjGau4fFL9B9HGunBD85Rz9i4FVWTAC5hKmPnzKH7ocfuX5ataLPZNGYsuHae66R7366hup4hYa2mBFyCJtmb/OmV+bQmP2XW4GvGgetk5wBt/Hsd7TzfaXsRDTVV4Myi7E1afydamZlA268qoLIU04wH2YwBV8fQGG1BZP2Jo400dkkNdNqMIAEXH1c4/rp7npke4VRS1JwZC7JpDy5O2TyBHOCPINg7hse0CxXc4BLIT42eQ1uW59I3FqRThOxczBC4TWtwvdXYTevfqSEOMdjRVBAzlz5fWZpoom3QYzdkz6xU0rQEF4v0+3bX0Yu1bZJYl+E1PZjLarrV42Vw/Qx6rDh+ZoQuphW4ekdQCrP/HG1DOcww20Mx7Dz86QkuPp3oOeG0sTSDNi3JpoRpnkqaFuBiGD19vIk27amj5iFO2ejQNIPARZr2yoyJoIeQq6woSpu2pT1BD659Tb20/u1q2tcsUjZyiN2q36ez5rJNhkv1YwBaWbKJnkS+ckVa7LST+UELrgaUGP/rnjP0m1PNKIWRhhxSmIFmUTCXQs4ai/GP2wtS6eHlOZRnipw2IAs6cA2PT9CjH5ynRw+cU0th9GOSwLUK4nplThKVp8XRIXijL5/toENcSCgShxYClZhGOVZJ73mVDLdlLrFJ3m5sRBjdX5pF312YTrHQZsE+ggpcO+D9/QtCC3U9w/ZBUBuWCpzmSkZQ880vLFVApR+7LvbQFjgTu5p6JC918sAl2IzZaytY7Nb85KDGV1CA63BbH61/q5o4bmW5ao5yvAFmrg1IMG/7WJHCVBU4pq6RCWIW23xFvqWkuaq6VQFZfT9uAn31agCZSzaV/PtKlPRsL8+lsqTg7EqaUnBxyub7u2vpqQ8vqqUwlmEQSggQczFTrV+WQxsQKeffxWBTeN2fjingEqZpDXRPJermC+Kj8fo4VeK4txxqlFgssGZRDy4GNhda3F2USg8uzqKMIOtKmhJwjSFG9V9HkbJBNaiSsnEnlBAAcBWiD3FNYRpt+3gRnYUDUXWqRTGHqwtTlb3V9w7TXaisYHMojjE5KoI2oIRmA+JQhzr6acO+s6oWs5xD4DSXEbjU14gSI+bQA4iPfafEHDSlPZMOrp0wNxvfqiGuXpCJylY8BJ65qq5bQHcuzFAYiBkrpWqvhaUKUR5TCcCtBlPxYHAxyOoBQCHY+Ttd6G+cSrNocR6EVMDPYhQm/gym8oaMqa+CnTRwncTdvREaZue5DusFsWGjwJtFZp3VCEq+XN9OhQkxVHlNCa3U8nnMWhvBpAw2wUKrchKpauV8xQzy2HzgPLQWzKBgKSNvcBI1lxG4xGs3ZMbTNjBsqXbstjfv5Pwr4ODilM0DiKw/gU6bMV442ltB7qNZrCjNpKc/sUDZyo4z7XTjn08ocaQKsFflx4spCUzEZnAz0kvPQLALncUHzGaQzSWDq75vZFqAi+eZKy3ugR77Ec4xNXLyS3sCBi6le/n4RdoEwd7sqMtmEpiLTdx6iPVVuclUbo6jjUh4V0LvqeBRKYhN3GZEwVnYCzPILMaaymOzFyTMZbmJcYqpkRG0pTSd7oGWnMzoWEDA9VZDF63fVU0cYrAbk8hcDKxda8qoQGpYvez5gxporOASLFWeFq9oLTaV3WDcVa8e0wKnsiV3IdiDEFzCVJYlRtN2sPBKdItPxvAruDhlswGgehF9gQ7HJICL9ZQqvlVW2lCWhz+5iunrgne6Aez1DNaEsKRaFBaz/AUPMhUivts7wR7E4BJsvTY7gbZCJhTHBjaV5BdwKd3L6LB59IOzxikbGWkBBBebvaevXwjzBwaCxuOyZ0WgYxTirq28ukQR9Irpu9BNW7A8Ev8UzGVnAr0R7NMAXHyISpc45uKHKLeOneMoYu0bv/kELqV7GYnl+96pJWYtt0YAwFWOJtTVRWYFVGvQ7SwGs9RmAGz7EWgsbb+rkC+svKaYyrT0juIlwuEwDCv4AK5CFPzVYx0KzwErpZNE6bMUarBJbAsgy+87e00hZ9msh1EeSnu2Ij52C6SAvyHmNbgOt/bRur+don0iz+YWsmzNj+UrPgRRqz65kO4ExbNGqjrRRLsau5SdrMpLogokedkUHmrrh5CvBUtZc4IbOCoPU1kJ4CkC3whIPoBrAyLmbJIrjzerwHU7fDG54BKmckVyDG1flEkr/JhK8hhcLfD8OLTwFJoiDGoWXEPMj8zF4Nh2bYmyz8t+t18BkcXGYT98cVnQl8Fc8uAQBHuLQo850lzuA0GhAsmsav/WXlL03uJsZX9VdXJJtuPvGJXcyJ6fv5lLgEsQ3u1g9p+i6iLDD11JHoGrH3fgfESyLyp07+XwI7gEa/GRpPxit0VfWYKLeF2Ob/HnXgbA1nCMS5gIcRo+MFfFvHTa1dxjE8FXt6/+VZ4SSxXQNlWo+jjUpZXtSLiUj3cqwSXmhIFVfU0RUkq+BS48AhfvPJiYiwX8rpvKNdPXh2ZYmD6lskLVFRyK+MM/LlHiW3f932mF2TghbWUmyR77AC6el81YM7VrZIyqato0/WYFlwBaJWJpOxo6AUQtRGPZva0OsgBzEjSXEXM9PN+saDFfh8fgEjsMFs3FwKn8h3lKYR+P+t4hqkc9WDIqBPg9C1vtPC6uts/g4hKccpQdq55omKqtoPeUYGx5Hh1C3pRBptdxa1B/xSmoqrp2jTkl2rRoslmsuWQ0B4u3KFiqAuuUcoyLqx3q0X7GTLXjTJuS1jEW7J4zF1dDMHA3o55LbHPN3BSFJSvRRKKYQQCPBf2bcHaUdBHGZVoNfOXJZnuQ24QvJhdcmbghHkJ66C44QEHjLcogC5Y4l/WYJDMjkYN9WMBzcPE2KtAhXYiEcBWCxcxebBL5d30ZNDNZeWqc8hlVa9mbSsuLk8xcIs61Ccs8BaqFzWuzaGSPgyVCbyOQfQBXMtrtV2PNU77uzFYctT/UMahsnoFTMT8dfzJo1evHrTprGgRRp1WEXg+0HdUtdD9c/tNduBD64Udv0bJpd+JkhoLdMXMpOgp5xg3v1tuU4dh6dnAa4mNQOJil1NXvwLJN+veDKYi6ALX3jyCBfSOS+JMx/MpcHKqobe+lrAQTmWNhNoKgKsIWgLr4kpOVBStRR78ZHUhymbO9CbPYOaXOfhWWDd/MZc/OAqZGIA+w5pKrItpQ93+xZ5DmmRMoLsBlOH4B1zjqa6rb+ygK7U5F0BgykQRLPZengr5q5TzasJeLB6019Ebg2nxZvlJLr6aPNLAFCbgc1XOxI1bX0UejaOObl5aAp4P4W8prM+Hras5nIVT7Ed+Zjzsh0slBBkMlqieCnosDKxZkKAWCcnWqbPbYK1wDTWb1HIMHXO5Uoo4yKbT1UiwYrDDFvpXOV9PpNXN1DI7QOQCrODWeEj3oOgmWGnqVZJx7iwwwbuDg4OhBBF+5iYNDHZyvvAzvKWkdjmdZreOUay5vauh7kOBnJstPiqU0Py4O7DG4hlBeUwNdlWKKolysK+XNCJbuH1fgkk0psxR7jMxcXKFqZTNneUIJdc5MpR80lz+6fxqhxTpBGiUomjShm8jX4RG4jjR3K3XZizP8s0hZMPQtOhf8BuBwFWpw9b6fBX0g+haPt/TQKC+Ckp7gE748Ate1z7xBq+Zm0leWl9B8oNsf4wzo+D0kfX986ALtRxmPnSjW78TbUIaHoQirqfOQmSYRXEtRM7apKJmWxkXSslyzPy4HVYOVfwsS2YOsxusfKfJpmx6Bq/wXr1FDzwCVpCTQ18pK6KZFc7220X3QMfWd/cQmUow3kXR+DPVVDXKHTQhc1tQV4xyMkong7vqCZPqUOZbC0VHF//H/ZkiVgjTvrEr7wAi93NhBzyJIfAamMQcS4J2PqeVM3g6vwCV2dk1+On29fD59ojjTbRs9jsk43QbahRuswiqMuONMDF7lhqtD+c8QHlJgN2Yxc8WgHLkiL5HuyE0kk84zh9evzGfYxAQtzEimODwX0p0xiIc/vIVS71/Ba9wn1uzHF6ccXHzwc3AnrS2dS3eVl9Dl2SnKvx2NRrBe+6BBObR646mPpNPw1IQ76fFjTfQaot6h9bmIPosO6nsLkynLjSI+BhozWnmeY1PJN/lBPAPpWSyq9yqkif4+nnRwHWhCK/4b++nDVrEajRVGyTGRdOfSYroT5nJusm3rUufQCDV2a3VUFiA5gKDyPtiM38ZfR9GpvRVR72PK2lgK0Ym/rBsIQPrHbl+WfUhJcZfiXDpWL73FBXFR9MACMy2ztMepDGVD946mEgBKRInPvHS1HEmMc90D9BzypL9D61+3wRpopXHR9BBKxMsQdvFleGQWeUcskZ77sJ4efOcotQ7Ys1ApbD6bytWlecrisWe7e4kj+AYGTgGPyljGQzWXYcpd9Up9B5jsIrUra83r0DQDwZUGXfUtdOd8AW35jptz3AMaM1kRgqRh4XPoT42d9GvcqKeV5Z9sRxqCqd8rTqe12Ul+aZ71GFzicFiQb9t3gn6+v5pGoJP042rosVsXFyJsgfSCMJXOwOQG0PpGJ+ipky30m+o2GpmhqzlzCu3L+Yl0NwR7PH5Xbj5+IoiLYbl9ZQGrfYdNYDUCvn/oHqL9cve79n4Urs9X8UyibyLbwPv01/AaXOIA6mHuNr91hF6t1tapko6Mc1b/ND+XbgbIctE3aENRjsCkvc6bccR251HDv+1oE/2tQe45lKdEMl3i5WkQirgagdpNC1FibLIvMRYsboAdHRYkNsM5Nw+M0R+RSfkrQgvi+SLyFz6THk/fL8mguZA1/h4+g0sc0Gs1DfTAriPE9lw/zKZoum1JIX26OIsSDWqzxYTZgckFm73f0kcPHrhg7eax7Hh6gasIKZf7FqYRg8uRRJDn1B2g9UI+vA0HagdKvjsMdFUuTOAPis30mezAld/4DK7BsTG60KvqKl7FZsepRvrFgVriagj9YD325aWF9NHcVIpGesEjMDkA2hhefwE16T//sFnpXVTH9AAX5yjvLUmhm1FijLV0rcOV0yM+aeBljwBIB5HGeRFhhVrLs5Csm46D1bsFzcOfxhLknOBhPVeCyoi4qCBiLgbG+e4u6K1x61Pt2ZThjR7osV8erKOXTjbCAbC/F6+bm0F3LCtGuUcsYKB5hnokeqjPuLv6yRMt9HxdBwKzKr5sRhCZRX5q2U2IV22Yn0pJLmqqHLK67vRYglaDpXZ0D9Jeg9Y/VlI3wIv/EswgA0zvbaah/m5usn8rI7xirot9PTQwqraqy9ARdK2e9yWqRyXq1ndP0cEm3bMP8S6XeaxdmA9NlkdZiVF4krsUgnAXaAb67Ay0xY8PN9Fu8VAEsa0gAddVaSb6PnRVKWtQbfC8uTSHDm42/l5b/yi9ClDtBLhGDG7mJTC76zITKdcuRmaN7mt8T3mojDDH+RaCsEy5J/Vcg2Oj1NTXZWEqy4RowLDOlhYQ1V54+2wrbX+vmi70aU9tlcCTHW+CqSyi64vSKV47eYum0INMuuFcmdS/48kbDx+6SA3iLp5icOUj//c9gOr6TCfs4KE55MrfdzoH6SWAqsVSrGidtEzcwBV4eOhHeHVBp+i1DWkkxUQpIGPP1ZfhEXM19nUgbWPVUuodpzNrcJuN2IzDFc8fP09PH64H69nrsWUZSXQHgrBX5iTjpDSbJoHWaG5cOQKcPnoW9Va/PNVGfVP0jOuY8HD6Wkky/qSoC+G6OCeZzVT+tx8jOK8jsAovAFQn8XB4/eDU0M3IO34end6igNMdJ0BYnDn4fl5irFJW5cvwCFy8o4GxEWrp70b+FGjX4i88AfLvygHpQKa8hNe4yPC/D9TRK6cv2E0cQ+pTRVl0+5IiFCGabMqtxPcNJ9yFPmvDkuT/iQVBdpztUoLA1hp3SZgZMpswFtJ3XFU9aO/z5j6fl0AbF6RRtkFoQT0fdfuuTKIwm/zzXN8ovYjQwtsw//rv8T4/iQVFbkeqKMkR6xg4ATKA4mA9ilLi/VL67DG4xIF0Dw9gITVe+IMpVdyR6q3mis34M6dR2vHInpN0vFVbeUY6wwRk5L+0qIC+MC+H0mBO9MPpRXECtBOdQ/TvBy/QUdGV5KIS1bDu3g1wLU+Jph8sTcdDoVTt4jo25Rpo7WCoN3D8r8AL7DNI6C8AgO9Bk0gRQj3uOgHytUpBnCsHjTWRPppC+Vp5DS6xkWaw2NC4mkqQE88Km8mgUz5hWwHBn3mjroUef6/GMJWUD2r+CvTYqkIzmRx4VZ4CjZlrJ4Kvjx1rxuP1pLCiH5grCxf4u4vS6bO58cbpE7eFu8qoPD8sIXYDVC8iut5oEN5Jw2IhFVnxdC26zO3i+G5oOPZc8+ElJrlZRWF3pzt5wWdw8bbHL03Qxb5O/JT0mA5YbBJtaFz69yD02LNHztL/HjkHoNqnkq7ITqW7y4ppMSojWUMYmhEjxpROXH838z6rqtvpf063qaU9PoArCsdUAV11LwKhJgSP7CSCwQVwxWajOKYPu4fpdwDWEQNdFYXj/SLWwrgJf/h3d0yrAKx6m4ehFi9aYatADb+ASxzcELzJ1sFu6BorQJSTlrWZns0kkLXAs3ts7ynadVZrepDOmlNJqxfk0ReREM9P0vSYAyZwpWVk178JubatYLG/KAvDafe+2xUMRJ/JSaD7lpgp33B9UVWXunvhhQk9jzzgS50j9DcsqiKnUMV0fAyhm3+GCTTrlzhyg6n4YJIVb9C/MS0jgPoVXGIHPSMo9B/ikmXbadWbSZuJl8TtgaYu2ra3GiW39qtBsza4Famkz0GPJTNNaLejowvortn8AIuWPHK0hU7B/FgFv3qPK8Nic9Tof2lSND2w3Ewr4JWJYRvns51ud3RQ5+A4/QWVoJxg7jbQVayn1mXH01KtQ8chaB2AjGvtGFQJAYjGTxq4xI5aBxBsHbOPbdlpMzuTyaY2jP5U00RPvF8DoNq72yXwaO5AKunagnSKkXMnTnSNM6Axdibw345zPVitppXYwzQylbwE0ncWp9FtRYmOCyM1E+3I3OiBNoQc1p72Afp99wjVG6RskhCauQu66vqUGBst54qhxY3HP81xJsrwU3DUXTMaEOaSd856rLm/i0YnjHLy9qJfb0YG0PH8xP46evGEcSrp46i2vAsNI6VYdFffk+tI1+gZhsMqQnLxz37ExCqPt9GzZ7rUVBJGBC7wbUVJ9O1FqZSCWisrXTk3e87YjMnpZNcI/Rbreb2PEIN+RIJpbjTH0M04t1gXXdGOgBaHBxzkJ8HBcFIh7C5YPP1cwMElDmgI8bHWwR4bPSYfrFyzpHiaOjbjzu5t+2ro3QZ+dpDtiEESfM2CXFq7KB+lPXD/MdN2JsMBo8mgUuffCrTa3hF66DDW1MfrPygzU0mCk6CiZNYdM5YwsWHUiG3/sWOIXkcgdNhAWF2Bfd2TE0/ZUsrGlRNgNc9hcHzCEQiNp5gArwfhDHCTBi5xEBwb4xiZI/9G7wDo42YMrm17a1DhalDaA+/ny9Bjn12QDV2BQjsjQGmv8WW2gAm/KPxjI6+s/+Zjt4LQDZHuRMT3DE/QX9pQtQBPsB3Fj/qRB1ZkXXUlwOXMEXAMtDCYPxOlmvyTH/SUreTPTzq4xM4d6TEbNtM8S5VPrGzG0QquuHgS5tK4tCcBpdbz6AosFRQNc6bXOAqwNDDZLDsqAcwKKJXJ9DEk9SZwkmy30IhqNoehq97rUEML1XJ8TftcPNJ4XwGoPofMhFzW7DKpLd1AKTExlBk/OY9ecQd0UwYuPrjRiXEET7sd6jHL9VEupDWwKC5qN0p7Hn+vll45ddEwFcLFiVxqPQ8enfWC2eorBSG6LBBrMAu43JhFIzMuvsY3Qm33KD0HE7gbplA/eNc3pMbQ3TCB8Q51lW2qTb+NiLBwLCSS5LTzyo3T8PtHphRc4mwGxmAiBnsd6jEbNpPqyZWLCmScxvJNj8FUHrjIDziwHVza88XSfEWT5SSpmsneBLKJ1EAnf13WYNLrsrdrc2zaP4RevNg7Sq91DqPMeIQGDHTV8vhI+mZOHBXrco/OnABVT6psyL0JWQmoz4r0f6GfP5AWFOASJ+JKj9leSGtYWpioXWfbFdF/AcFH/cjBCoB3o7fyOqxaEx/NSQ+VsexSJsprztSOdcuyPpT31zd8if7aPkwvAFhNBimbLOjBdblxdDWCoQaQttmBo/fNsahagBkM5hFU4OKJ4srVNniVg2Azd4Zl8jU8cMf2M4fP068OG6eSrspJoTuXFdHlMENKaY8HYHJ2PHwcI9BVhztG6FcwgccH7MuKOJxwW5ZJCS/o1zJz2uEj6SpTBKLrib4tEOLOvPrjM0EHLnFSI+Njih4bk/KVrk5YNlfNSCU9/n4dvV7DS3PbDo75fH4e9NjSudBj0T736LHPV9c1Ti9BsL8BL9AoZfPJ1GiwlYmS56gxMsfRdWPenANdlZ+IWnuEGKbLCFpwiQkcRHyM9ZicFHc1ubIc/xAlPT/eXUPH0LquHwmIId26ZC7dWJpDGfHerUfV0j9BrwFUL7WjFMbgYUilsRH07fxY4p+2Zt0+lqf/gGDlzLgEhFZ8K9xzNWeBeD/owSVOum90EIWGfbjj3dND+gv559pWqtxbCza099gKkAj/enkxrcLzoE2RdirMcN4HRy/RO63D9GvoqgbErvTDjO2sy4ulT6SgP4CZykFjq+pp8rftGSsxykTpsYFPMAcCWMoZeVJDH6iDcHe7rMe6EYTtGbEPoLqzDS6z+eX+s/TssUbDLvFr8s1Ye6yAlmfFQRMZb5Hjnkc7RumFriGsCmOf0uLu5bUZ0XRHjoliDHDqTFuJkEZkOFI2iYHrJ3RnrvzxmWkFLnHCHB/rHOqF6Pfu6WkN8CaZxd6s157BI80kC+01C3PolsVzqTCVTZFgyjCq7x6jHZyyQTmMfSaQ6JrkCPpGXhzlwBt0Z+iBFgb1lx2fBEfD94c6ubP/QH9mWoJLTAp7lB0o7RkD2LwZ+xEX+8m7tYiTiec0WreSigcC3La0gG5cmKW8+BpM4O+7hqmLu3B1owSlP9+CCSxL8A4UDLI0E+uq4A4teDrH0xpc4mR7kKvsHuk3bMB1Z0Kew4NJn9xfj1SSvZkr5W7k0hKqGbIHcDJKfb6agy4bs7diOwwBUDwQwuSfJUDdOdfJ/MyMABdPGJf2dA31Ewt/bwYvl80Ae/44noCrI6ekK5bZbDIc0fw1iFV9NTcWpTDe7A3R9fBIyo5LnpJSGO+O2PNvzRhwyXqsHUHY4XEjVeR6gurRufxTmMo9562lPTK4PpIYSfcitJCPKL83IwJiPTOW41XehT682edUfWfGgUtMZP/okNL65q0eY3A9uqcWCwwPEoOLwcSgYnB5M7iox2xKxDIG1jZ+b7Yznb4zY8ElLgKHLroRuuDV9bwZVYcbKDoLC9lleguKMIqPjFEE+2wbMx5cih6DN9kBkA2AzSZrhCHelRQVi37A6RsE9XWuZgW4xCRxvrJ9qAcBVON6fl8nU3w/DkyVEsNrmXqny/x1HFO9nVkFLlmPcesbe5j+HJEIfqbFJKD61Ttd5s9jCYZtzUpw8cRzjpJDF96mkuSLFw6GSob5S0AuMDSsMzBrwSWmgL1JjvK7Wz+mB08CdBUDaypat4IdyLMeXOICcesbg8xRf6X+QrLpS4UJnCl5wEAANQQu3az2YikCjo/J613IH2GRnoqwQmyEt6GJQFzG4NxmCFwG14VLe7qG+5BrtE0lJWomkMMMoeF6BkLgcjJHbCLZVDKU2ATOhpSNa8i4/4kQuNyfq9AnPZyBELg8nLDQx92fgRC43J+r0Cc9nIEQuDycsNDH3Z+BELjcn6vQJz2cgRC4PJyw0Mfdn4H/B/6SRG7MvlVcAAAAAElFTkSuQmCC;" vertex="1" parent="1">
          <mxGeometry x="165" y="275" width="84.11" height="63.5" as="geometry" />
        </mxCell>
        <mxCell id="Ep5J_HdR2HrbwdO68PAK-59" value="" style="sketch=0;html=1;dashed=0;whitespace=wrap;fillColor=#2875E2;strokeColor=#ffffff;points=[[0.005,0.63,0],[0.1,0.2,0],[0.9,0.2,0],[0.5,0,0],[0.995,0.63,0],[0.72,0.99,0],[0.5,1,0],[0.28,0.99,0]];shape=mxgraph.kubernetes.icon;prIcon=pod;fontFamily=Comic Sans MS;fontSize=17;" vertex="1" parent="1">
          <mxGeometry x="81.5" y="385.75" width="100" height="83.5" as="geometry" />
        </mxCell>
        <mxCell id="Ep5J_HdR2HrbwdO68PAK-60" value="" style="shape=image;html=1;verticalAlign=top;verticalLabelPosition=bottom;labelBackgroundColor=#ffffff;imageAspect=0;aspect=fixed;image=https://cdn3.iconfinder.com/data/icons/user-interface-169/32/plus-128.png;fontFamily=Comic Sans MS;fontSize=17;strokeColor=#FF0000;fillColor=none;" vertex="1" parent="1">
          <mxGeometry x="114" y="325.75" width="60" height="60" as="geometry" />
        </mxCell>
        <mxCell id="Ep5J_HdR2HrbwdO68PAK-63" value="&lt;font style=&quot;font-size: 18px&quot;&gt;Problem&lt;/font&gt;" style="text;html=1;strokeColor=none;fillColor=none;align=center;verticalAlign=middle;whiteSpace=wrap;rounded=0;fontFamily=Comic Sans MS;fontSize=17;" vertex="1" parent="1">
          <mxGeometry x="15" y="200" width="80" height="40" as="geometry" />
        </mxCell>
        <mxCell id="Ep5J_HdR2HrbwdO68PAK-64" value="" style="shape=flexArrow;endArrow=classic;html=1;rounded=0;fontFamily=Comic Sans MS;fontSize=14;fillColor=#000000;entryX=0.072;entryY=0.241;entryDx=0;entryDy=0;entryPerimeter=0;" edge="1" parent="1" source="Ep5J_HdR2HrbwdO68PAK-62" target="Ep5J_HdR2HrbwdO68PAK-22">
          <mxGeometry width="50" height="50" relative="1" as="geometry">
            <mxPoint x="475" y="223" as="sourcePoint" />
            <mxPoint x="585" y="283" as="targetPoint" />
          </mxGeometry>
        </mxCell>
        <mxCell id="Ep5J_HdR2HrbwdO68PAK-66" value="" style="shape=image;html=1;verticalAlign=top;verticalLabelPosition=bottom;labelBackgroundColor=#ffffff;imageAspect=0;aspect=fixed;image=https://cdn2.iconfinder.com/data/icons/font-awesome/1792/question-128.png;fontFamily=Comic Sans MS;fontSize=18;strokeColor=#000000;fillColor=none;" vertex="1" parent="1">
          <mxGeometry x="359" y="315" width="73.5" height="73.5" as="geometry" />
        </mxCell>
        <mxCell id="Ep5J_HdR2HrbwdO68PAK-67" value="" style="group" vertex="1" connectable="0" parent="1">
          <mxGeometry x="770" y="10" width="321.96000000000004" height="160" as="geometry" />
        </mxCell>
        <mxCell id="Ep5J_HdR2HrbwdO68PAK-53" value="" style="shape=image;verticalLabelPosition=bottom;labelBackgroundColor=default;verticalAlign=top;aspect=fixed;imageAspect=0;image=data:image/png,iVBORw0KGgoAAAANSUhEUgAAAe0AAAD1CAYAAAB9Rq25AAAgAElEQVR4Xu2dC9wV0/rHf13edHu76kZRilOO3DoiRXRB0kmJLhSJElHUwREpyjUpUiekI0Qil0pRbkkdJBT/kiJCJd3et8ur3eW/1syevWdmz96z5t2z9373vL/5fM7n6N1r1qz1fdas31rPetaaEofFBV4kQAIkQAIkQAJFnkAJinaRtxELSAIkQAIkQAIaAYo2GwIJkAAJkAAJZAkBinaWGIrFJAESIAESIAGKNtsACZAACZAACWQJAYp2lhiKxSQBEiABEiCBYiPaW/7cjtCBA8oWz61QHpVzKyqnZ0ISIAESIAESSDWBYiPa02fPx/Zdeco8/9G0MVr94xTl9ExIAiRAAiRAAqkmQNGOQ5iineqmx/xJgARIgAS8EqBoU7S9thmmJwESIAESyBABijZFO0NNj48lARIgARLwSoCiTdH22maYngRIgARIIEMEKNoU7Qw1PT6WBEiABEjAKwGKNkXba5thehIgARIggQwRoGhTtDPU9PhYEiABEiABrwQo2hRtr22G6UmABEiABDJEgKJN0c5Q0+NjSYAESIAEvBKgaFO0vbYZpicBEiABEsgQgWIj2jx7PEMtjI8lARIgARLwjUCxEW3fiDEjEiCBrCRw8PAh/HXwIEKHDuKA+O9Dhw9nZT2CUOiSJUqgdImSyClZCkeUKoVS4r95qRHIiGj/uvkPtdKFUx1ZtQrKHlEG+Xv2Ylf+buV7S5YsiaNqHqml50xbGRsTkkCgCEix3nMgJARb/St/gQKQBZU5olRpVCidQ/FWsFXaRbvgr/34z4w3FIoWTdK53TloUO8ofPntGnzyxTfK90qhv6FXFy09v/KljI0JSSAwBAqEUOeH/gpMfYJekdycI1BWCDiv+AQo2nHY8Ctfyb82bw5phTs/Ffm0vBtrxl+UfIaFyCFRGYpC+QpRpSJ5ix8sV0+4HF1e3ORbe9krZtd7DuwvkrxYqPgEKpQug/Ji1s3LmUDaRfuv/fsx+aX0zLTLlT0CA3peqs+03xDf095ZdL+n/df+EI4oE6yG6kdHnuyLS9FOlqDa/X7Y2k/RVp1hb9q5DXO/+Ryv/O8jtG58Mq5vfRHqVKmuVmmmShkBP2bcn365EhXLl8MpTY5PWTkzkXHaRZvu8Vgz7967Dy+8sQAtmzXFyY0bZaIdpOSZfnTkyRaMop0sQbX7/bC1X6It17C3/7UvYcHXbvlVCPXHmCcE236dfmwjXNe6A5rVD867qGbFopWq2hHlklrjvnf8s1qFRg25rmhVLMnSpF20OdOOtdjsdz/CL79v0X5o0vBYtG15BkqLiMpsv/zoyJNlQNFOlqDa/X7Y2i/RzhNr2PGCzj7+fqUm1it+XudasdqVq6H/eR3Q8ZTmrmmZwH8CMjitkljjLsy1eet29B46Srv1hcfuRe0a1QqTTZG8J+2inc6ZtsU9Plu4x3cVPff46vUb8O7izyyNQ0a8X3pBa5TJye6ADD868mTfGop2sgTV7vfD1n6Ittss+8z7BqtVyJTqsxETPN/DG/whUNjZ9qQXZ+ON9z7WCtFF9KU3XtXVnwIVgVwCLdpFPXr80KFDeG7WXEj3uP2qXrUyLrvofJQX6/LZevnRkSdbd4p2sgTV7vfD1n6Itlvwma+ivWk2ujzzMX43ITq70wQ8fprpD19Nxplz1oT/0Bj3jhgIvDQYo9brfzrqzB44//tX8BJa44VbuuKEuLiX4db7XsHShj3w2ZUtXIySIK1RZqV81GyfylSFCUqT/elVt43C2ac31Yq2dMUqvDjuXm19OwhXoEW7qM+0v/puLT7+/Ku47Si3Qnn06NQeFcqVzcq2Zu3I22Lzpy9gzH/mYdn6LdgdElUqWRaVax6D8/oOx8iuDZH4lSrA2gVT8ejUefjilzwUHArff8wp6D3kDgxoWRNOYXxJi3bB71g0fSImzfkaP/5hfu4JuLjnENza6QThwvNuns/HdESfN3eJXrsn3njrJjRxyOLnp3vjwmd+Er+URcdxi/DYOQ6J8mahV9sJWIHKuEKwva+ZOU0IeWveweOPvYp3f/gd2/dI6EBOhVo4/oyOuHFIL7Q7Ok7bWvsU2l35Mn6NlE/wn30/hjyxFD9q+ZREo+umY+6A+lqeKqId+mMZpoyeiBe+2ohdmgFzULF2A7QN23+DD9Hju/YXYL84PCXepSLa9/yzl3b7/W/P0P7fcabtINjGM6PCvRFPPDEWL+2sjiuvH4FGm5fh4tqbdKGvIkT68jqQTvqFzwgxlv9WEW3XdLIUwRHtMuLwlcplvPV/737yGcY+MwP/uf92zSQ33PMIhl3fCxeec6b3F7UI3hFo0S7qM+1nZ77tOMs2txPpKr/84jYoIU4QyrYr2pEPwpMVZmLIe1uhdadCrCuW2Y/dWsetX7liW9gCsS3MMW43tAZT+g3G46v36Iml2Fcug7/EcoeeRUlUOfcuzHss9v5kRDu0ejp63vg0vk1wnk+pGu0w/sWRaO91yeyTkTjttkXYh6YY/v5k9K5kt+6vmNi9Byb+qP+93AUP46sxLWOaQGjev3DqyGU4WK4dJi8eifMjKXZg4fBro8wdG08FnHTjBLzct3HsgMcQ7Sr/xPR3euD7QddjzIow/3BerUcuwZSO+j/cRHvbvDvR8b4l2GmYPKcCKpfaFxZvYf8m/XHHqXNw98vJbfna9tfehCedJRLtikeUxa0XdsUlp56JUW+9hHfCQWpOov1OeLZsmVkbQh4R1rB4moU2PPM+6sxheOPCeil6pYMj2vLktOpHlHfkJGOBln65KvLbN2uicQonN26Ix+66Rftt6ANPYOWasGtD/LvhMUdHZt1ni+DfrheelyI7pCZbinYcrqnep/3b5q2YNf8DJav+o2kTtPrHyUppi1IioyM/onJllNy1F0d3G4WJN7ZA/dzw1FTOYh8bisFvbhRiXhJn3DEPL3TLtVVhhxCEHmK/txCMio1x7b334ebzjgrPyuXsbySuf3gJthwqifrXTMWCm6zbOwot2tsXYMBlo/GxEOxSNVphxMN34p9Nq+jPDe3Ghk+fx7BRL2uCXuqYnpj5yk04ycuMOyTybyXyF+VuPfJ9IX62mzdPR5dOT2N1xQrI3b0H+VI8F94Oe0jUh8PbYeB7BSglBj1fi0GPnksI307og+4vSq5CmK8ajrHXRrnv2/Ed3h59N+5bLAdRFcTzXxHPr2rlbog2zsDVPX/F8y//iaPOH4AxN7TF3+tVAXZsw4FKtVEtPAlKxDm0+il0uuZlbBCCndOgCx5//KboDF+w/L85ozFQ2PBg1Wr4c9v2pPZpby2wDizs74NZtGWg2eZd4nnikoI9+ZqbcUKtuhbBlr/FirYxg9bd3RdHHmKeWbfHT3IGbSrA2Q0bY+l6w1Uuf5D3n4qF0u1tEva1796H3p9ti96pubJhc48bz4omiw4EPIh2eKBR/8zW2PCZ4eoX5bq+Fp6JuP51T8EtdcSzYjwMpt8QWyZZOr1cCHsdjPKa70vca9UoW8ExgQw2u3f8M/hx4+84Thy+1bKZ3kfWEkFnpzQ+PhJ8JtN9s+YHbBH/Ly85E/9j2w7tnlFDrs+6ILW0izajx/X29/7S5Vj1fXT0l7jZAt06nI+6tWu6JStSv0c6clGquj2fxfzbHGZ02IFp13TCw9+JRGfeiVUTL7HM+kJiRnq2mJHmow6unj4D/24Sq4zbXhmIcx9bhYMlT8W9Cyeip2nWWjjRDmHhnR1w8/sFojcXM9j3xAzWSZC3C9d0B+GaFmJU96ppWDTYy37QfLxwXQeMEQf8Oc2iN03ri/Mn/SB+uxZXrHwOz2+uhl7Pvo0Rp5hNvAYPdrpO/AacPnQ+ZvQID3g2PodLuj4nXK8l0eTGGXijb12HdhHC52MuEy560ZGVa4GH5j6KS82z/Yhoy1vL4vTBogxXHeO4BCFTxOecj5cHdMQoCam6GHjMEQMPB5YRG8rMkjiMx0202z58B3b/VYAhF3bRZtQ3/PcJbN65Pa5gy+LEinZYFDXRNYs2oM/ADUFSmWnb0kTWwGXel2DdE9OAy6VgxgqxfNbCE+UautUN75Q20gDsa9omEZZeg/b/Z15vH4br/xyrr79H1sBlOb5Ge1lvm2dhnUPdN4Q9ClYu8QY9zt1XPNGWqeX69dAxT2jCreICN1znUrAfG35LVq5zp120D4gD+5evXO1JXP4mtkFVrZSL3//4E7/8Jnooxat06dKQM2Z5fbP6B+wrUD/O8KhaNXDMUbUUn+Q92fOz38GOXfnKN9apWR3dO7ZTTl8UEkZFO54LWC+lIVCx67shIQZtxSz7kG0maatdgllroUQ77w30bv8YvhA6YxFDB6grHv4ner0mhC/OTDiRHSL1rn0FXptzC06KJDYEXZ+F91jaQZtNxwwMjNk4jsetc6ZhQG09A+UyJaqnSbRLnTIYi5+93HnpIlzmuJwja+5uLD/F0HPvwDwZk5mEaLu5x4fNfBaffL8Kx9c6WhNqrf2JA1acZtjyNzkbf2vwvTYzqsy0TUKb0D1uFW2r8Jkfaxdtp1mtbbDgFGwWT7SNtDGBarbnOq3lh+sHzUMAfVaOcJCe2UsQ8zLEDnrsSRK5x81pH3n6JSxc8jkuOKc5/nW9cEs4XEZEeftWzXF7f+c0RaHfdCtD2kXbrUDF4Xc5cJk4/TXPVZVr20eLwUS2XJGO/JjemPv6AMQ9qkKsyzYW67Kxov0VRrS/Ga/udOvwf8AjnfviORHGaxe2Qol2ZL3ZKoaO3L98BC1ueFv4C+qh/6sv47YGHqwTEUbbcyJCpw92enx5D5rf/iH22YLW8oSHobnwMFi5bcGUKy/D42vjr4NHSxid7Zc6dyS+e8w0KDSJttvAReYXl/N7d+Lvw4Xr2zawiKUUwmuDzsfdcvdjEqLtFog29+vPIgFmhnDnikM8zGvY5rJdLPZo39s5toP3b027cKJtf77jDN+DaMNYY08o2mEXfcTDYPck2AcShig7eBwUXxMvgWiGKDvNuI0ZdrYLtsRWaNHetmMX9v2lPnOVkdzVq1TWTJVNX/naHwpp6x9erto1qic8HOW3LWI9+x219WzzcxvUrYPO7c/1UpSMpnULTooULp5oh+bi2rMf0tYFcypUQW6ZeNU5hL1GUJqtwy+MaIfeuhVNR38hHibcxl8It3EiihGBLYk2YxZj0gUysVivPkOsVzvdZymf86AkIsZihvu5mOFWingSzOIe9UJUvfRJLBtu7DOKusxVXPaRKHb7wCoi2nVw7UuzcHv8vUhaLeNx9sLy23GXodvL4pChJETbbcuXLGvnCaMsa9mn1z8Bi8WhK07Xm7eMcD7WVCl6PBn3uJw19wVmjcWHf5Nrwr9a1rQtol3b2HpW+Jl2YUS7kbH2bngSNNf+1uj6twmoUd6Im13y+6AO3nDZvuZly5c8tnTkhKla1HjDY4+2mHP9z79pUeQjB/eLrH1ntHNM4uGFFu2331+CH3/5TfnREmKnNq2QzsNV/Ige37R1G2bOXaRcT5nw6q4Xo2ple0BVNIvvf/wF8z8WM0uPl4wgH9T7MpTKktPSkhZty7qqIiwfRDuyXzjBdqxoaaICHY2mVhVtIBJIFpnpRteAm9z4uliPlks0Tn8z3Mn27WBO5YnPLm5dfRJtLyz92KftdriKJCFPRbt95lTXBnXduRfhenEiWvzLWNuOprDu0y6EaIus7IFoeiCXVbStAWFG4Ni3OF8LGPMeiKYm2i2sZRMz+ReOXIje35+kb1dL4DqXY76IcBu4FPaKezlcRc603xNBZm9OeVhb635BfG9CXr27dNDWri8dcIdwn5+Z9QetULTjvJFG9HgqRFsGoMlAtMJcXS9sLdbaw4uXhckgjfckLdqOs1hvFcjMTFu9jJEtW8aauOOsGoiZfUdE1R4vULRm2pFyl2yFxz57COEdYo6A/BBtmXGiY0yNBz/z0Xw8u3hBXEOd87emGNs9WGdWq7fKwqSMXed3XELwkLXXY0wHDH8YFSuU04RZfpRqT/jQqgpCsG+8sivkTHzLn9vxn9H6/u1svdIm2o2OrYtL2rREtkWPF0a0r7nsYlQRgXPxri+//V58F/zrQrUZuf3rhAb1sEkE5RmBdXLmXb7cEWI0WR5yGUI20qJwIEvSoo1ocJLKuqoT0MKINtK1pq0pjHE4iu6GvvWH8L7rE/rjw5f6iJj58BUJOtNFut3renQ57Ong95p2cu5xRNa0EwcjylrOG3ouhi4W0X9JuMdlPiqzbZnOvL5tbjvx1rEL9cIWl5vCs+zIjF3UW/cYhAPTIg1ZHYiXWbbMtX2fwVrfJ8Va7tP+1/VXaQ979JkXtX3axm8Lp2f3sbQU7ThtKJmZtptoL1+1GkuWO6+hqTfpxClLly6FRsfURWMReV9frIVn4kpetKNu4VKnD8WyKV0QcwaJS8UKJdqR2a5bAJwpUrt6F8xYMBSnewYdFVk5MLl+VRctUrzR9a9gbn/zVi0jnYwofw8dFl6gRdU7rVtHZqxuEe2R6HGHPfI+uccRGWzE2Y8e4bUK9100EDPk9uQkRVtm6eXTnE9/vACL16zEafWPR88zz+PXvTy3Yf2GmP3l4m8xx7oq5u3105xyd9CwByeiZvWqmvvb2LNtPE7OsqX7XMYnjf33oKz+XCdFOwOivVKc3PPBsi8Vm2/yyY6uXQNtzmoGeZ55Oq/kRVscExLZpx3nEJBUiLY4nCSyh7miCEZ7XQSjOZ14ltQ+7WjBDZEtd0F/9Pz2aREF3wCDZr+AQbYDs4xjTateei3af/SciKp3OrpU5Bsplzhw5qqnMWew0/541X3aSc60YTrZ7Sixte01sbXNYZ92nghGbC12EGin8Psg2jIblaC0dL4PfJYaAS/BZ0aO08UHoeTV9aLz4u69luvcsxd8pKXr0zVRrIJaOTOVKm2izUC0qIl/EgcBvLXok7TaXAaxyY/By29254j96+m4/BBtcfRW9EQ0ebpXt6G4p/+5OKWqcR6xOF/7j7VY/tYCTJ2fh16zR1nWTQs105Zw8hbhxs4j8YFxItq4u9G1ccXw4SIF2PjRVNyazIloZgMY28aqV8OR4kSwP+MFwEXOA6+Dur9vwq8xR5eaBgJP9US3/0ZPRHt8wLmoF0YWyl+L2SPvUDwRLVnRNg+85HGlPTF2bH+0rhlW7siJaEvxV2457NwlTjTzSbQlDdUZdzreBz7DnYDXGbaRoxRk1Q+CeEnrXuL0p0ibaHNNO2rc/D17MfXVOem3tnji8fXroeP5Z6fl2f6Itihq6Be8MGQgHvp8l352edwrdotWoUVbPvbnWRjQ70ks3RU+MFs787wU9u7YI+bi+pVT50KM++893s8et9TBdLCI+Hv8rVomF7JIZz261A5lBz59+Gbc8NqGaFnFtrnyB/Mi532jZGWccsNjeDHR2eNiVT2ZLV96qcSxqtMGou+kNSIOXr9Kla2knT1ufMQkt+WdmHP+xzhvtNhV4aNoy2fJNe49B0Jxv7GdlpeBD0lIQAadVSidg1IlSpKUCwGKdhxAqVzTlo98RnwsxIhuTGcrlYfjp/KkN3NdfBPtcMfv9MUq/eMhtdCobVv063wFzonMhvWSJCPa+mP/wPKZU/DAzGXRr3yJj11UO/okXNpvAG5oW7ivfFltHt1zDReRjOyrFhmoBOftW/cennzieby50vjKV0mUrVQDx7W6HP/qfylauH3lyxfR1mtrlOX1OF/5Kmd4EnwWbYO1FO+/xMFGIfEVsAPivw8dPpzOV4/PMhGQJ52VFgKdI77idYQIpKVYqzcPinaGRPuj/63A1yJ4Ip1XrSOroaf41CcvEiABEiCB7CRA0c6QaMv9gi/PWZjWVnPpBeei/tGZiSRPa0X5MBIgARIIKIG0iTYD0WJbkPwe7C+/i2Mb03Clcy07DdXhI0iABEigWBIotGjLozh3iPOeVa9qVSqJQ0GOQbZ95Wv3nn34dq36JzQlj1NPPAHyCFW3Swq2FO5UX6XFmtE13ToqR1emujzMnwRIgARIoHAECi3ahXsc75IEdubtFt/SXic+zL4OBw4kjof2g9hFrc9C4+OO9SMr5kECJEACJJBBAo6inbd7L/J2iw2qvHwjsCt/N/74cwfksahevxqWTCHatGgmjvSL+1HMZLLmvSRAAiRAAmkm4Cja8tujq9dtSHNR+Di/CbRvdQb+fvxxfmfL/EiABEiABDJEwFG0X533Pn4XH6TglZ0EjqxaRTtAJdHnQbOzZiw1CZAACRRvAo6i/eyrb0MGYPHKLgIy+E0elN/0bw2zq+AsLQmQAAmQgBIBR9Ge9OLr2B86oJQBE2WOgPwM51E1j8TRtWqgjvj/OjWrZ64wfDIJkAAJkEDKCTiK9vhpM1P+YD7AG4HO7c7B9l352ratKpUqolLFCtq3s3mRAAmQAAkUHwIU7SywdRPxTewLzz0rC0rKIpIACZAACaSSgKNoPzn9NRwUB+vzKhoErux8IWpUq1I0CsNSkAAJkAAJZIyAo2hPfmk2/tpvfHwwY2XjgwUBuWZ9Rce2ZEECJEACJEACcBTt52bNFYeriI/R88o4Abl1S54bzosESIAESIAEHEV75txF2sldvDJLoHJuRfQVZ4bzIgESIAESIAFJwFG0537wKdb9/CsJZZhA5/bnokFdfkozw2bg40mABEigyBBwFO0ly7/B8lVrikwhi2NBateojh6XtCuOVWedSYAESIAE4hBwFO3/++EnvLfkc0LLIIFe/7wANatXzWAJ+GgSIAESIIGiRsBRtDeL9exXxLo2r8wQaNKoPi4858zMPJxPJQESIAESKLIEHEX7gNijPVHs1eaVfgI5pUuj3xWdIM8R50UCJEACJEACZgKOoi0TzHj7vbR+95lm0QmcL75/fQq/fx1pDqsnXI4uP/XDmvEXib8twIAzpqLhS7Nw+wlFu8VYy+1U1h/wSOe+WN9/CaZwg4B3Y877Fxo/XR9vvHUTmni/W+GO3/Dy4IF4YOl2hEpWQ4+Jb2PkGQq3JUgS+vl/eGNLPVzR/GiljLymV8rUnCjlDN1KlIp3IISfls7HpmP+ibPruj3f6+878PW7XyOnxfn4eyWv9/qXPq5of/S/Ffh69Q/+PYk5uRKoXqUyeneR4pT915tDWmFig2lYNPh4a2XWPoV2V27AoC8exaUK1fRLtEOigzp1fA1MW3g7mhvPDYlBQKvRWN/LVs5PRuK04cC4xSNxvkIZnZJ4Fm3ZgY4EHorHJfQphl4wHkdOmoF/N8kpZKkCdFuKBUdrL0+K9jJHtpcQQjk5SJb6uqd6ovNnnbBoei+o7Anxmt6zdRMy1AX1ud+juZYqeyT+1qYHRgzugVOreX6aww2pEO0NGHdZHyy9dBZe610rqUJ+PqYjpp46zzSoXoQbz3wUuePfxcMtkso6fPMOvDaoB2a3egUzeqjHL8UV7R82bMS8D5f6UTLmoUggSMFnRU20kTcLvdrOxj9efRm3NQgbRIrzfV+gbLXL8MrMa3Fs+M/yZe279WZ8LWb3he2o/RXtED4fcxlu2nsHlo5pWegyKTbD7EiWYtF2t192YEpYSgXRjnqCQsj7ZSVenzAaY1c0wpjXxaA7aeFOhWj7ZZctmHLlZVjRK8WesI3P4ZJuK3DlwonoqTh7jyvacl170ouzcejQIb8oMJ8EBFqfeRpOO7GI+3w9WFBdtIU7662RGDD2E/xScAg51U5B71GjcftZ+sgz8Uxbv/emx5fixz0hlCpbF22GPYJxnY9xEDb9Jfy403wxqs3V8pbifFe5i9Fw5nKc/tY0DKgt/ypH6ldh+eVGOrdnSJf9+2g/7yJ8cd1ovLXpINqMWYybV5vd+iLbglWYeMtwTPlKuFtzKuC49jfjwt8ewv91CXcK0gNx3VYMd5rdax4BsSzwQnRZIO+T8bjmkfn4YfMeMQ/MQfXT+mLKU31wkjbK0MvUZmoTzLlzBr7aWgAkZCNuCf2C14bfjtEf/4qCQzK/bnjkoZvQUnTMP0/ri4vfPA0zX7tFzz+0Bg9264/PL52BN/oKH2Tepxh90zi8uX4LdovTj6UNB40fjwGaR0B2zHfh4KCr8fvk8fhgo16WS+57AjfkTQjbXfypXns8+uw9aK8JgX4P/j0I2x65H3O1e47Eadc+hGl9G+u2tQtOgvI7Ndtt/3sKg+97Q2NzMKca/tH9bkwY3BzVsQ2vDx+MiZ/+gk37y6FaxRzU6zERM6+tb8lGtsubDw7EDZuf1pmhLI656B5MvzYfY24113MyHj4/XltObKPYtv8+znqyPt6/9zUs3y6srnG+Fye9Nwq3z/wG20L2diDen9eGYujkb/BznqhnSb2ML49qLerpwNBSw3iCKmeHl+Pe0E1YNqULNJ3R2P8bDy35Wdi/pLDlObj78ZHodqwx5JXv0EMYOukD/J8oN0T7b3nrDEy9fLt1iUi0qyn9hmJGvdsxe4xeRs1O4fra32/NBhiBR8tNxMCp32Fn3d6Y+3obzDYtO7074hKM+p9RsUPYuysPtfu8iAU31Uf8d+gbPH7lCDy/bhsOlquCXBFepLeBNTHLc/Hbkep7mI+XB3TES81mYG5/NX9+XNGWj3x70Sf4caPJP+Kh02ZSdQIN6h0F+enNIF2qoh0Ss92zR+zBHTMfQLeaOdi3chw6Xf8j+oVHnolEW7/3T9z4zFj0bVQWoT/mYlD38QgNmYXnOse6m7QZ9PZb8d1jcv/7VxjR/m7hj34Fx0/ugPntwiKtzcjfQes5uoi7P0MK5CR816AmetwphOp08blU0Xmum2QW7Xy8OaQLxmAI5jx6CWrnFGDtf27GZdNWi/KbRPtfwJNOa7Tv3Ym/P3kUZs4Romk0kl+/xbISjdDi6LLieX9g2sBueKnp1PByhCzTA1jaoBuemzoQZ+QKrv8bg/aDN+EmxxF9CB8OvwS377k5Uporz3gAACAASURBVL6vHumNq9b3CnfMv4oBT2+8cfbTorM7HquFm/eKpR0w96U+Ye/Eb/j6ixL42xlHoZwYQmx+8Ra0nXUSXtPqEnaz5rXAaM3G0H9/8jvkthiKWQ91Rr1Sf2Dmrb3wUOVR+Ep4EnTR7ovn97TCiOdHoruo476VT6DL9fPw97Fz8dg5Qgwsou1WftubtXE6unSfj6aPTsA9LWsiRwyoHrzyJrzf8mnMv00fFLjNtLXfX8xD67tfwMTOolJ/vIKrO03CN7lnijLfL8pcCptn344O4ytHllli23JiG8WmH40lx1yBF1+6BaeVLcCno65Av3fy0aj745hx86modHAV7u8+ECsufV0MpnTXcN7qb/Br3RNxomgDKPgcd146DDtufl+4fO0M7b1Pglmw9FANK8Dozx5CR2Fvre382RcvTeiBE8oK+791Fzo9dgB3vPk4uolBmPYODfseXSc/g2GnVwTyN2JzqB7qVTM/Y4d4R3qId+RWLBAeLm1QEbZT8/9Mw79Plu/3WxjQbSrqP/k2Rpyi26jX/AM4qtkA/Oeei1C7lBjI5GyIGysS+vIRnD9sK4YZXoKE75BT/W0xNa7tSO09zHtlIJrPaYEPxfuksmySULRXr9+Adxd/FiQtKXJ1ya1QHn26doCMGg/SJUX7zk/j1ahFeO02JF7Utnj1rHmR2S9gnRHHF+18vHBdBzzf1LoenfAF0Nzh5TFFrmubZrbNxEvT4sMLdIGSAvlUvbDgqDxDvpijsWPwHLx6VXSgYCm3NhB4FadaAujEGvW5d2D3He6i7SYgkrKTIGBkuHPWzCBmx50G4c/bFwnRs9lFm8m/hVYLJ6O34aLbLISt0zJ0fT/8t3AHdc7w8/DemP+hy0wxqIl3JL4lbkHv/D64QJ/d6EoiebyCptNfF+vz4bJYRFi/5702VttaBl3m9CrlN1XZcflDdOgtbt2LB8KeDjfm2u+L24mZ3QA00vLW28pzJz6LD4Xw65e1k/dqI6f0pYQXZ9IF4exlmW/YhKFLhTiGJ7Vu5bYMpj25x00ANft+hAtke67t1LZ1FrNbysFDecf3VM/NEMYPcfO6Pui5uBVefuWmsLdIb9PX7r4Ly4afFnn4h8Pb4a7yj2p/0+o691RMfWc4WkbWseIMNkJikN7pX/h1oPOAPvYdchdt93aki7bre7j6CZx/ze8Ypg2C3K+Eoh06cADPvPI29of4xS93lN5TlC5VCj06tceRVSt7v7mI36E2044NdjGqVfcqvcOOL9pxXs5EgW4mN3PvT/ui3Tfd9XVrKVCdV+HqJY/iqEc6YjBGhzsKlWc4R7Rbyu1YJlvesgwD8vGAw0xbdlT3VZ9oEgNg37q3MHLUdHyy5S8N2cF9edjV7K4EUfYJZk5a+V5G7MHFdXCtaaAhZ9jd/vsbTrgx7BY3jFWwHjMfHIP/LPsDWmkOFmBX3mkYowXVxev8xCDBGBDIexxE2x5ZH3rrViH0jXWhNKdXLL9RXOe2mUhgY182J3GU+b56VnT5xV207TshrKxcgzBlvW/agwdMwZXWe8Ss99MXcM/42fhul16H/bt3okr38GAoKdFegotlfEjIObA0Wo6GCXZJ6PVd3qAFfvp0I3q8/AqG6iMg7Yo78G95t9bOnQcoTu0thG/H9ULvH6/GoomX6LN4cSV+h9xF270dOfUNDvn+NAUXXbEONygG5yYUbVmxxZ9/jRXffV/EJSL7ileiRAl0vbA16tVJLsKxqNbci2gn2vbkq2iHZ0Pz281Eh0Xdoy5xTVgGYsuwZ3H0+D74/lpjhppG0Zazsuvyxbru5fo6oemaN/RcjD366ahoy1lvt5dQ8y7dNRvrzlXsLIxnKEX068Fw/eblo3LHccIlelo4bkC6znvh2Rq3h13rIlOHmbbVxvqaewdzJ6Ug2hYvSoxoq+9IcO9sFd3jka2IUZGZ394cuOQ20/ZBtG1LKub3JeKWfkZ3LxtCGNnVUVjRNrvH47QdL6L9fKgdrj5lBZ5f2xGviQGZ4XyJ24eE262qaIfETLbDNatx9XzhNTKC51zfoTSKtubVEpMGv0Q7f89eTH11TlHVhqwtV9A/uakm2noQxlPHPYUldzR1tGV80dZd6xMbGOu4+u1u60PaNpofj0PrJdvRwuQOXvHwP3HTzlPQYNGf6BCZAao8Q2GmrbmD38bZs1/AoIhLWa6p34wtQ9yjU2M6J4fOVs7GB+4ZVriZdt4b6N1+Go5/Wl8rdLoi64HPtMX86yeh1tjXcV8zOVxwqL/s1G/bg3sTzrTdRXt+a7OrGWKg0A63IbzubWagUH5znSTPbkJwLbsDCuMeL+KiHStq+tLTrObJzLR3CHd3Z4w78n58/lBr5DgESRpLBerucfEOXKAHN37c5mnMGazHFch3svePfaMBb7aGqSbaP4jA0v4isHS2dVuV6zvkLtru7Uhx8Oyne9xgJLd+yS1gvPwh0LLZyTjj5NQcCeFPCZPPRU20o0EqHcaFg4JEHO72Vd9j07GnaAcYJHIRajOJ4Vtw/XOPo79CIJpWK20d8G3sOKG/NfBD/v3Oj4Ga3THbFBDi/gwF0RYzfDk4GVfOmI2KQLT/DsOVk7/G6eFAtNDy8ej8cAH+NfVOnG+fatsD0WRZb/wJ/ec8gb4iBipvxWT0GfwG1jS7o3CiHQ4mGrSmLSZNvhWtRUAgCnbim9Vb0OC0v6GSbT1wm3BTt5tcB1PkHuYcOfgYjHVXv4bnrxKFyf8aYwcMw4wfTsP9SYr2cyJ4bdSLMqjLCERbhOaTwoMFh0C0uOW3N2dtljUHfxv3FO5PJhCtiIu2NoD9b11MfVOs+YrAtY2zR6LH2KUo1z080PU005bv5WJMfHwCZv3SFPe/+lB4y5ceiHbblt6YOfEqx0C0PNF+247egl7jn8SgcCDaD9ur4MRjN1tc56HVT6FTvyVi18N03C53HoRnwxVvnoSnr2qoBTnKbWc/lmyGU0WgtYpoxwZNhhuD6zsUHuA0ezYSnBgzQHVtR2qi7TbRsDdfV/e4vGFHXj6mz56Pw4cPJ9+bF/MczjrtJJx16t8DT0FVtIVsY/PCJ3CjiArWtoOIbSmVjzkbI568Dx1F9HbidT3rvYm3fBnI9QCwby6zH/wS7+9uz1ARbfHs7Z/jkTtH4wVty5e+xejCX4ZhSZvF2uENeW8OQcsHd2PIW8+in7b1zHRpM8kZaBrZ8rUDC+8diH8tMLZnie1ePX9E77fOwldxT45z2RMrItDfGXcnxry1Vmwdgtg+VwnHtroNUx9sjY3CLT5gU3/TeqA+25rSYILmJs/78H70HLEwsmVv0PgrsHbAXJyzONGatvtMe02HO1Hhvej2Kct2vpgtX/HK384xInffypdxy8ipWCq2k1m3fOnc3QK64q1pFyX3uNyaN+Wm2zFRtrnwdq9x9f+LIXl36bsMFEQ7eriK2MpVqR7+fsEVuHdwZyHOpvZpaTvxtnxFt2bKLV9nDZqO//bKs613i7XnCX3Qff5p+qE2QrctdhLz74q1G6DP/c/hllNVRFsehjISn4S3bRkl1rdvVXZ5h8Q7+eUE9BnyOtaIHYeNrpuOuQNit3wlbkcqou3zli9zv/Hhsi/xzZp1gRebVFbwnDNOQbOTjMjSVD6JeQeLQHE7XKUoH7oRrJbF2mSYgJ+Hq9irUvDXfjz76ts4cOBghmuZnY8/76zTcWoT25Ge2VkVljoTBPLErKHzFNQrFseYUrQz0cT4zHQT0I8xfanZVP2QIsVLyT1u5LV6/c9i33bkeBnFRxTvZCVLlkSH1mfh+PrxNrUWbz6sPQnEEqBos1WQQDwCnkRbZvL+0uVY9f16ElUgID+v2eWC1qh1ZNKH9Co8jUlIgARIgASCTsCzaMuzyOVnO//cEd6tH3RChaxf1cq5Yh/2eZAnnvEiARIgARIgAT8IeBZt+VC5d/uVOQuxZ58Iq+MVQ+DERg3Ed7FPD9zRpDQ1CZAACZBAZgkUSrRlkeU2MCncf+3nEaeGCeX54e1bNccJDbh+ndlmzaeTAAmQQDAJFFq0JY7NW7fhtfkfQn7Gs7hftWtUw8XnnY1KFSsUdxSsPwmQAAmQQIoIJCXasky/bdkqPuG5RMy496eoiEU7Wzm7lvuvT25sOum+aBeZpSMBEiABEshSAkmLtqy3XON+873F2LazeAWnSTf4+Wc1Q7my4hvKvEiABEiABEggxQR8EW1ZRvkZT/nt7XU/x37gL8V1SHv2dWvXhDyOtG7tGml/Nh9IAiRAAiRQfAn4JtoGwu9//AUf/u9LyBPUgnY1PPZoND/5RO67DpphWR8SIAESyBICvou2rPfegr/EISxfYP3Pv2UJhvjFLJOTg5NOOA5NGzdE1Uq5WV8fVoAESIAESCB7CaREtA0cP/+2GUuWf4Ot23dmHaF6dWoKsW6IRvXropQ4ipQXCZAACZAACWSaQEpF26jcGnFm+dIVq5C3e0+m6xv3+SVKlMBRtY7E8cfW1c4Jr1C+XJEtKwtGAiRAAiRQPAmkRbQNtBs3/YEfN/6GtWLduyicpibd3bXE/uqja9VAIyHWjAIvni8Ba00CJEAC2UIgraJthvLHth3aHu/ftf/9mXIRr5xbUQSQVUXN6tW0QDJ5GIrcY82LBEiABEiABLKFQMZE2w5oV/4esfa9A9vEh0i27czDjl15Smvh0o1doVxZyC9q5eSURhkhxDkieKyM+O9yZctqAl2zelXt37xIgARIgARIIJsJFBnRjgdR7v/eHzqAUCik/7/4d9kyZVBeCDXd2dnc9Fh2EiABEiABrwSKvGh7rRDTkwAJkAAJkEBQCVC0g2pZ1osESIAESCBwBCjagTMpK0QCJEACJBBUAhTtoFqW9SIBEiABEggcAYp24EzKCpEACZAACQSVAEU7qJZlvUiABEiABAJHgKIdOJOyQiRAAiRAAkElQNEOqmVZLxIgARIggcARoGgHzqSsEAmQAAmQQFAJULSDalnWiwRIgARIIHAEKNqBMykrRAIkQAIkEFQCFO2gWpb1IgESIAESCBwBinbgTMoKkQAJkAAJBJUARTuolmW9SIAESIAEAkeAoh04k7JCJEACJEACQSVA0Q6qZVkvEiABEiCBwBGgaAfOpKwQCZAACZBAUAlQtINqWdaLBEiABEggcAQo2oEzKStEAiRAAiQQVAIU7aBalvUiARIgARIIHAGKduBMygqRAAmQAAkElQBFO6iWZb1IgARIgAQCR4CiHTiTskIkQAIkQAJBJUDRDqplWS8SIAESIIHAEaBoB86krBAJkAAJkEBQCVC0g2pZ1osESIAESCBwBCjagTMpK0QCJEACJBBUAhTtoFqW9SIBEiABEggcAYp24EzKCpEACZAACQSVAEU7qJZlvUiABEiABAJHgKIdOJOyQiRAAiRAAkElQNEOqmVZLxIgARIggcARoGgHzqSsEAmQAAmQQFAJULSDalnWiwRIgARIIHAEKNqBMykrRAIkQAIkEFQCFO2gWpb1IgESIAESCBwBinbgTMoKkQAJkAAJBJUARTuolmW9SIAESIAEAkfAs2h/s/oHrFyz3gLi5MYNcUqT4wMHhxUiARIgARIggaJEwLNoT589Hy+8ucBSh96XXoQ+XTsUpXqxLCRAAiRAAiQQOAIU7cCZlBUiARIgARIIKoEMi3Yelv93IkZ8sAWhGq0x+bGuaBQm/d7YwXh0pQl7qTLIrdkAnXv2xJWnVkXpoFqE9SIBEiABEiCBOAQyJ9oHNmP2w49j8vcFetHiiHZOuYooLxX6QAF27Tsg/qMSLrn7fgw+wVSj/fnYkrcfR1SqjiplaGsSIAESIAESCCYBJdH+9MuV+PGX3zUCMhDtmzXrLDROadwoEoh23DFHoWWzkxPTKliHp0Y8hTc3A0fXroLfNm+PK9pn9J+AB1rJ7L7HuJsmYX4+cOKVD2LCheWjz1gyGe2fXoNo2mAai7UiARIgARIo3gSURHv33n0YOuYJ/LhRF+5413H1jsJjw29BxfLlXKgexJoZEzC1ei88WOENdBCCG2+mHRXiDZh06+N4Y1tJnDXwcdzfwvQIinbxbsWsPQmQAAkUEwJKoi1ZuAm3umDbyIYFN55oV6t/EhpX+wt/rP8J63YdQM7RbTDu/s5oXHob3n9+NhbvEPlt/wVLN+Sh/jmXo7NcFC9fD63PPBa5xcSIrCYJkAAJkEDxIKAs2omEu9CCLTN1EW2LGUQwWvWGLTDs5q74R+WNmDJ0LF7b6mAo2/p48TAla0kCJEACJBB0Ap5E20m4kxJsBdGOuMf3/4kZD4/BtB8OoVqbmzHzGiPOPCr8XNMOenNl/UiABEigeBPwLNpm4Zb/rbaGnQCyy0w7KsQH8cmTd+K+L/YDJ/fEwmFnRTPlmnbxbsWsPQmQAAkUEwKFEm1DuOX/uweduZB0Ee3Ilq9D+7F7z34cREk07TMG49qZose/fxf3zv8FjTtcj55/KyaWYzVJgARIgASKHYFCi7ZvpJTXtEviiCp10KprHww7rzYPV/HNAMyIBEiABEggWwgoifbQB56I+UhIvArKj4c8dtct2VJ/lpMESIAESIAEsoaAkmhPenE21v/yq1KlGh5TFzde1VUpLRORAAmQAAmQAAmoE1ASbfXsmJIESIAESIAESCBVBCjaqSLLfEmABEiABEjAZwIUbZ+BMjsSIAESIAESSBUBinaqyDJfEiABEiABEvCZAEXbZ6DMjgRIgARIgARSRYCinSqyzJcESIAESIAEfCZA0fYZKLMjARIgARIggVQRoGiniizzJQESIAESIAGfCVC0fQbK7EiABEiABEggVQQo2qkiy3xJgARIgARIwGcCFG2fgTI7EiABEiABEkgVAYp2qsgyXxIgARIgARLwmQBF22egzI4ESIAESIAEUkWAop0qssyXBEiABEiABHwmQNH2GSizIwESIAESIIFUEaBop4os8yUBEiABEiABnwlQtH0GyuxIgARIgARIIFUEKNqpIst8SYAESIAESMBnAhRtn4EyOxIgARIgARJIFQGKdqrIMl8SIAESIAES8JkARdtnoMyOBEiABEiABFJFgKKdKrLMlwRIgARIgAR8JkDR9hkosyMBEiABEiCBVBGgaKeKLPMlARIgARIgAZ8JULR9BsrsSIAESIAESCBVBCjaqSLLfEmABEiABEjAZwIUbZ+BMjsSIAESIAESSBUBR9EOHTiIgv0hHD58OFXPzbp8S5QogbJlcpBTupRS2bOdYXGrr2HU4lrveI066DyCXj+lzipBoiDx8VqXZNml6n5H0c7fW0DBdiAujZ5bvqySLYLAsLjV1yzcxcnObg066O0g6PVzs6/b70Hi46Uublwy9bujaOft2Zep8hT551aqUE6pjEFhWNzqaxi3uNY7XuMOOo+g10+p00qQKEh8VOuSLLNU3U/R9khW1eAUbY9gi1jy4mZnN/xB5xH0+rnZ1+33IPFRrYsbk0z9TtH2SF7V4BRtj2CLWPLiZmc3/EHnEfT6udnX7fcg8VGtixuTTP1O0fZIXtXgFG2PYItY8uJmZzf8QecR9Pq52dft9yDxUa2LG5NM/U7R9khe1eAUbY9gi1jy4mZnN/xB5xH0+rnZ1+33IPFRrYsbk0z9npRor1owE2vrd8dljcPF/+NLTJ23CQ06XoI2NcN/W/MRxq/KRffLm6FOYWsp8/0YuDiZPAr7bNt9qgZXF+1t+GDWMqC1iZlPZfUjG//rK0ol28SGehhyUUPxj/V4fdpybDQXtmKjaHuRaZdtQb0WpnYWTrtp2VzMXAOcbG5v2m+S6SKs3G0jYM7XBU5K6h33mbby1vlHmI1xg5lRBYf6mjLW3sF1yNf+VAtt+56Hppbn6nnBgWciJKnjodf9p7rt0K9F9WgRwnaP/sFc7zCPGE4idbj+aGzLL2P2duatt909plKZbZVM/dzbivbsX+t46pNTYX87A+s7bu0Xcm32tNzr1A4S2Fu1Ln70n6nIIynR1sDtahLpYAyQZsDyb++ghXghd4rOYjWqxnSwCtUqpqItB0WfV/bW+SjQ9JREtYGrD1KcRHsjTjCJi6XeovOeumo38nOj7UyvgD7Y+Un8VwPXAY8uDDuaxgp/PBgpqXech0XfEV20rINh2XlZ+cQ1oMJ7smrBXKyVGdS/JDrYVmgRKeOhlXmTKEEd66DcMrAzxDgfzbV2IpjMWo2duyuG/x2tgMbyV/HvurLPMQ0CMiXacdqv3ebaQDYyuSls/RTaiuS9Ih9V8nNxtodJkP/234ZVYsDdtLFhI1n2qD5Y3wHrxCaGnUL7NSdRrYvHbNOWPCnR1ka1phmw7BC21q+DnzZUQT9tFuW9s3SsuUJnlC5iqgZXFzHOtGNEydxha/+di5Pz81HjctOsMfJ30eG7iLZ9cKnSVvy3c/yn2j1W5k7JSwcV4/myPzLMtS2WWz1kCkBSxUPWb2nVFqi6yuZtsou25pExOnVdnKo23o0dVc2Dj+jff9ImCpkXba1PPL0JdsyzDrxi7Kp5CEyDkkLUz72thPuapqKPXuXNc5kq+0ebnrkfjO0To21bYWDi0wBN4bXISJLkRFt7kYzGaPx3PayN+Vt4dGz++6ydqJq7DivlIFteFtel1V2YW6cWxFQrOhK3uc4Mt0rsDMXsBoyW9Uiba8rJ9RrPGv433viiba6P9vJXroiVa7aEi2ZyF8YMaqJ5NllvdYV5dY35X19R/Bj3eOxMO7LsEk7bvfLqsMfGPBttF9vZxxiucC+57/W2Lx2Z/w3dpV1FuqxhXU6KsXtcF7+0ueiJ6+4WbSTsdrW4DaMcYF/WUuh6fOehPdNkGzkj3dE0KrROM+3IBCF8X8dcfG5eNovTVhSqh5TUz/ReQhucRAcYjjNty5KReCc81s+trUSe2XCD5+XGlPAxG8YyaAn3Ect2a0tBWh9meHQ1T4HwruUL7Qgvf3npv+UjVeui0m4ykSZJ0Ta58mRnE250EbGpZp6J2wXeuq5mFih7g7YITYxARUfg0ri6K1507LIT2CCR1tNn/ZFOAMK1ttOTa8hsGFWD+zHTtor2TLwP01qnuVNLINoytiDCs+oqz/EF/tfXSbSta9qWl9Co5+k7TR2NdB9KG9bHapd4gMIuMaSk3hE7VcFS21KReY0uWv/w4DU3avf4syl9DXCnae3P3n6MgZDrjNyhJ0oJD/vgzfxe2te0LYMVoy9piq0m++uzWr2Tj/QDir1qKupnsZUmNoYHUn8nLWvajgMsL/VzaSvmPqIQnstU8LHEnjgMRmU7fV+b1JkmKFq70MVcj5vyPihXrYti00l7sqRF22iYF2NZdCTpOOJ1mpVH3Z26m0yORB1mnrYRq/2FdBok/Km9wC2Aj1dpblU5uzbuMxqDPbhBhb6qwVMh2jFBf0Yn4CLa0ZfDKTApca39r6/aTDsyQIl07FWiAXvbjVkZEgfxJREEmZJ6i6obnbV5YGIVYnNglkP9DFu3Bt4xAs60Dl8MRu1r3wa7+htNgX/2NXOVVq8+O1Fv93o59E45ekW42JdILMGsVq9ZJGYmLPpyVpt50XYKhoyKj30JxBwbZBaiaL8lYoIS1i9Rv2kb3BYZ0TYZ3uaJius1NU0Ojbu9DkJV3221NyP9qZIWbX1dWwQ2YDeqGmuL4UbRIFe8kWLkGzsiih0d+SLaEcEXa0gf67Np3S3lsGYWpwN1M4GqwdU7L1X3uEOkvmfRdok8ztQMyy42ZleZqfM2Orrmu5ZpM6o2NRPFA1gDW9zsav/dfzvrT4gN1tTd2pb1etOszHGHhmnGFi23A4uwy7n5rkUx4qjd5yHq1n8ehrfEtKskJpbB2GFgj40x9R+GADXNxzth97r72m5sa/C9fraZtWF7YzBhLaO9rRaufnHbivRSRXYUmOuu3h/4zsfhhbQELdu9ocbyiYNr3/CwRHYsubzsqnXx2mekK33yom1s2YlZk5aRvSK6MxI8pDrT1kfg5qhpVfe44QpeuqsidlYOr4+5REt6fcFVDZ5R0XYYtWo8i8palsuatiWS1r4MIDufSFuLL9pe7ZoW0Y7M/M0zn9hgTUvZbd6CRPWyB9zFm4F4nZlINn63e+d6WNe4o9sCRQEss0NzX2LMaJ1nsaodqd/1c2ScyGMY953wUD/VtlIUZ9qWoOXYAXeUZ4IBnKKxVW2tmF3ak/kg2mE3l3m91ZhRmLaDWdceEs20JQNbIFrjRqgitnFEtihY1rtso0V7wE84r+g+UH3tL7ov2JvLWNXg3kTbvqdYL5M5YMhtxmVxNQpROzns5aixwroWXjQD0Wz7tM37i20BSdYBXTzRtts4/F5lcp+21mYR3Tdtaae28trKaVn/dJkdm9tBvOWfzIu2gncpjhtUH8zL7aOm4EVVsUrQvfr7XsdbZ7UGiFpd+GYxst3voX5KbaUoiLbW/o3zBHTDWNqr/feYNX+jz1D3FhjmV7V12tVY8YG+iLbiswKRTNXg6qJdtLEUt/p6fbGDYme3Vhj0dhD0+rnZ1+33IPFRrYsbk0z9TtH2SF7V4EHpzItbfSnazi9E0NtB0OvnsZuLSR4kPqp1SZZZqu6naHskq2pwirZHsEUseXGzsxv+oPMIev3c7Ov2e5D4qNbFjUmmfqdoeySvanCKtkewRSx5cbOzG/6g8wh6/dzs6/Z7kPio1sWNSaZ+p2h7JK9qcIq2R7BFLHlxs7Mb/qDzCHr93Ozr9nuQ+KjWxY1Jpn6naHskr2pwirZHsEUseXGzsxv+oPMIev3c7Ov2e5D4qNbFjUmmfncU7fy9BTh8+HCmylRkn1uiRAnkli+rVL4gMCxu9TUMW1zrHa9hB51H0Oun1GElSBQkPl7qkiy3VN3vKNqhAwdRsD9E4TZRl8YuWyYHOaVLKdki2xkWt/qaBbs42dmtMQe9HQS9fm72dfs9SHy81sWNTaZ+SMdnQAAAClRJREFUdxTtTBWGzyUBEiABEiABEohPgKLN1kECJEACJEACWUKAop0lhmIxSYAESIAESICizTZAAiRAAiRAAllCgKKdJYZiMUmABEiABEiAos02QAIkQAIkQAJZQoCinSWGYjFJgARIgARIgKLNNkACJEACJEACWUKAop0lhmIxSYAESIAESICizTZAAiRAAiRAAllCgKKdJYZiMUmABEiABEiAos02QAIkQAIkQAJZQoCinSWGYjFJgARIgARIgKLNNkACJEACJEACWUKAop0lhmIxSYAESIAESICizTZAAiRAAiRAAllCwFG0QwcOomB/CIcPH86SaqS+mF4/oE6GqbeJ1yfQhrHEyMRrK8pMeq92ykwp+dR0EHAU7fy9BRRsB/ryxcktX1bJLmSohCntiWhDZ+Fmu057U/T8QC9t13PmvCFrCDiKdt6efVlTgXQXtFKFckqPJEMlTBlJRBvGYieTjDRFzw9VtZPnjHlD1hCgaHs0lepLQ9H2CDaNyWlDinYam5uvj1Jtu74+lJkVKQIUbY/mUH1pKNoewaYxOW1I0U5jc/P1Uapt19eHMrMiRYCi7dEcqi8NRdsj2DQmpw0p2mlsbr4+SrXt+vpQZlakCFC0PZpD9aWhaHsEm8bktCFFO43NzddHqbZdXx/KzIoUgewT7T++xNR565CvYayFtn3PQ1ML0vV4fdpyoEV3XNZY/iD/vREnxKQrnB1UXxp10dbLu9FUnNzG7dCvRfXCFTCpu7bhg1mLsHK3KZM6/8CQixqa/qBe3k3L5mLmmj36vTH5iL9pttyEBh0vQZua9oLHs5tDGR3bQXwQ/tswKejebvbc/tWyTxUTSxuQRanYCN0vb4Y6pmKtWjAT72+K/van7d/mtGq1cUgluX0MXGx7NiDb0zKgtVMbLPTTUnajqp1SVgBmnHECaRRt2QmvRlXHDlqRQ9wXL3r/qgVzsVb+s/4lWSTa5kGFLko7mhqDDkU2viSL7cBkh/p5ZWMQYR8QxX+o7KzfQYsEgw/5rFXYkbsbVU/3KtrJdbKqHZ/6wCuOSMzLR3OfBovaEwrV/tUaRiqYaIL9ax2LSMf8bc1HGL+hXnRgaKujtf051UWxX6FoqzUEpiryBNIo2smzkC/w2voJxCzcAbTFclO6bJhpWz0B7h1V8iydc4gVba2T3dVE61TVy+XOXBf1Jmjw6+o4s5xEM+0sEO0UmKhw7V+tIP6LdjwxtQ1K7aJt/7da8d1TUbTdGTFFVhBIUrTFizlrJ6rmrsNK6d4Sl3TtNt+1SHd3ySviFrV2wnJGvLVyRaxcsyWc0OTqli/uMuPvep79WkCbmaHubnGPk8s1mj8s4m7r/C3uxQo42ePMPzWdm32mbRIlS3kNFsJ1buvcNBcjoq5scwcfcT9a7AEhwsIG9evgp2VyuUHyb4qtNldhNB8PbkRZ5hVAg3zRLsKu9nqR5QrzjLE+Vsd1TWaRaGv1rYLmYrAo273WXhtuMLljbUsKJhexxTbi7+3qbsJnFg+FwV28AB8Xpv2r9UO+t+sEXgHDC3MxlkWXT1AB9YQffOOm8Lstii3bzNk75mJpVcNrZlsa0foWWJa/LDxFnpH3W1G0Y/olaaum+ZgZ6Y9M/ZTt3TQvAVnLodvAeAfivY8qllK1k0peTJOdBJIX7Zj1Y/t6suESt4u2VWQ0EVqVK1xpsiNfhRqXO69V7zSt99qFyZiFW2ck5ufahcB9Rmg3q+pLo+5ajV0jjgqcvXymWUo18xqdHDzpq+InaNyi9x1pc1Ob3dZa55FvXmOMXS+Orq8ruiFlIbRB127TgMhcD7P4JxoIeFjTdlovT/A++m7DcOddxXFg0gwQNogKT7RgZi9G9K+2ekcGZ1KclsN7+1frmHxnEnmfrevXsjSWervMtGVag52zpyfBO2zOW1m0Ywe/9sFwdLnIzNbUlrcbfZled3Md7MtG7stIVvup2knN6kyVjQR8EG37LNEsuOZOOVa0ra5uq9BoAUyWztjh5TReyvobLeticUXbNoPXDeZttq360ngT7TiBcg6uwuhLLj0P4Rm56CSm7mgKOXPROriIoMsBkC2wTFY5zDXW3ZpIRD3MtB3KbTxLzpyia92FFe0i5h53EgTz3yIzMnPgZPy6Ow9GC9v+1bol39u1wkxbC7ZUFu144mz9e0zgm9GHeBBtc79kFlxjwBFtv/YBd7gvcRBt/R75zsZ/H1UspWonlbyYJjsJFEnRjkSDh0U26h63ddbidylWFne82Q5295kP62WqL03qRbu6NoKXnUHzXcuwVQZzQXfTXlx5dVgYTcIeE50t3eP2GIHEwqy8pu3QQWpux9Oli9eh0xI2i42YzzL3uD0y2VEkwp285h5PsDQQdrf3k65fsfx0thbx7GAbpfZvjvyP30mlpl07BZ56W9OOiqaCaCcaAPgu2vZ3y2of+7KHHjHvYeAbx1SqdspOOWKpVQhkVLTNbqeYEbdRetOLaHcnxgvMSeweTy6CXfWl8UW0Y7ar2To8rXPPR5X8XFPHbo3IdnbB6nC9inbiLVp2V6E5Ar4wAlyYe1SaPOC7Dd1m2pZixV+6iCbTO/cducDOytEI/MK1/wwxEY8tVPS4TXjt7vHYQFSbhy4cNGm070gf47to77TuhrFsX4zvsk/0PqpYSrXtquTFNNlJIKOivVYEP23cZA9Es6+rWt3X5hFsvP3M8UVbGMkePOKwbzSRKVVfGn9EO7a8loAubeS+CD/Vje7rduoo7UEx5oAYayeoMhOI4xJ03Gdt7D+PtwTh5h637l/X9/g6ufyd9uuncVbpItpyTTuyX93mVXCekYUFbw1iAiW9t3+1jsn/dh1+rn1Jyh5/oOwel/m5BaJZ22a9xo2wc1cV9JPnDPgu2rqnK2JX0TZPzhVRiOHtizGBaKZ6x3sfVSylaieVvJgmOwkkKdqFr7Tr9pXCZ53SO1VfGnXRTmlxmbkDAdowFgqZ+PeqePZgeXi0qp08ZMmkWUaAou3RYKovDUXbI9g0JqcNKdqpa25O3iPvu1TilU+17aaufsw50wQo2h4toPrSULQ9gk1jctqQop3S5mZfgvO4QyVR2VTbbkrrx8wzSiBjop3RWifxcNWXhqKdBOQU30obUrRT3MRSlr1q201ZAZhxxglQtD2aQPWloWh7BJvG5LQhRTuNzc3XR6m2XV8fysyKFAGKtkdzqL40FG2PYNOYnDakaKexufn6KNW26+tDmVmRIuAo2vl7C3D48OEiVdCiUJgSJUogt3xZpaKQoRKmtCeiDWORk0nam2GhHujFToV6AG/KCgKOoh06cBAF+0MUbpMJ5QtTtkwOckqXUjIsGSphSmsi2tBZsNmu09oMC/Uwr223UA/hTVlBwFG0s6LkLCQJkAAJkAAJFDMCFO1iZnBWlwRIgARIIHsJULSz13YsOQmQAAmQQDEjQNEuZgZndUmABEiABLKXAEU7e23HkpMACZAACRQzAhTtYmZwVpcESIAESCB7CVC0s9d2LDkJkAAJkEAxI/D/wGxqH7pnU5wAAAAASUVORK5CYII=;" vertex="1" parent="Ep5J_HdR2HrbwdO68PAK-67">
          <mxGeometry width="321.96" height="160" as="geometry" />
        </mxCell>
        <mxCell id="Ep5J_HdR2HrbwdO68PAK-54" value="" style="ellipse;whiteSpace=wrap;html=1;fontFamily=Comic Sans MS;fontSize=17;fillColor=none;strokeColor=#FF0000;" vertex="1" parent="Ep5J_HdR2HrbwdO68PAK-67">
          <mxGeometry x="133.96000000000004" y="106" width="40" height="30" as="geometry" />
        </mxCell>
        <mxCell id="Ep5J_HdR2HrbwdO68PAK-55" value="" style="ellipse;whiteSpace=wrap;html=1;fontFamily=Comic Sans MS;fontSize=17;fillColor=none;strokeColor=#FF0000;" vertex="1" parent="Ep5J_HdR2HrbwdO68PAK-67">
          <mxGeometry x="214.96000000000004" y="106" width="40" height="30" as="geometry" />
        </mxCell>
      </root>
    </mxGraphModel>
  </diagram>
</mxfile>
